M48
; DRILL file {KiCad 8.0.7} date 2025-01-27T00:19:12+0900
; FORMAT={-:-/ absolute / metric / decimal}
; #@! TF.CreationDate,2025-01-27T00:19:12+09:00
; #@! TF.GenerationSoftware,Kicad,Pcbnew,8.0.7
; #@! TF.FileFunction,Plated,1,2,PTH
FMAT,2
METRIC
; #@! TA.AperFunction,Plated,PTH,ViaDrill
T1C0.400
; #@! TA.AperFunction,Plated,PTH,ComponentDrill
T2C0.700
; #@! TA.AperFunction,Plated,PTH,ComponentDrill
T3C0.800
; #@! TA.AperFunction,Plated,PTH,ComponentDrill
T4C0.900
; #@! TA.AperFunction,Plated,PTH,ComponentDrill
T5C1.000
; #@! TA.AperFunction,Plated,PTH,ComponentDrill
T6C1.100
%
G90
G05
T1
X109.39Y-84.16
X112.21Y-79.16
X112.64Y-80.38
X115.04Y-82.3
X117.47Y-71.54
X118.55Y-72.97
X119.43Y-67.8
X120.09Y-70.67
X122.85Y-81.33
X133.29Y-79.16
X133.31Y-80.38
X134.26Y-90.27
X134.97Y-78.776
X134.99Y-79.81
X137.54Y-81.26
X137.56Y-80.3
X138.08Y-79.05
X147.96Y-78.98
X151.14Y-59.27
X152.16Y-79.11
X160.95Y-87.74
X165.3Y-59.18
T2
X107.83Y-63.7
X112.09Y-84.17
X112.09Y-91.79
X115.45Y-63.7
X118.88Y-53.44
X126.5Y-53.44
T3
X107.84Y-70.54
X110.43Y-67.13
X115.43Y-67.13
X115.46Y-70.54
X122.87Y-76.05
X122.87Y-83.67
X125.41Y-76.05
X125.41Y-83.67
X127.95Y-76.05
X127.95Y-83.67
X130.49Y-76.05
X130.49Y-83.67
X130.71Y-66.87
X130.71Y-71.87
X133.03Y-76.05
X133.03Y-83.67
X135.57Y-76.05
X135.57Y-83.67
X135.58Y-64.44
X135.58Y-66.88
X135.58Y-69.32
X135.79Y-87.25
X138.11Y-76.05
X138.11Y-83.67
X140.65Y-76.05
X140.65Y-83.67
X140.79Y-59.15
X140.79Y-64.15
X140.79Y-87.25
X140.81Y-66.85
X140.81Y-71.85
X143.19Y-76.05
X143.19Y-83.67
X145.73Y-76.05
X145.73Y-83.67
X148.27Y-76.05
X148.27Y-83.67
X150.81Y-76.05
X150.81Y-83.67
X153.35Y-76.05
X153.35Y-83.67
X155.89Y-76.05
X155.89Y-83.67
T4
X116.16Y-89.26
X116.16Y-91.8
X118.87Y-56.16
X118.87Y-58.7
T5
X104.225Y-84.165
X104.225Y-86.705
X104.34Y-57.03
X104.34Y-59.57
X104.34Y-62.11
X104.34Y-64.65
X104.34Y-67.19
X104.455Y-75.135
X104.455Y-77.675
X118.796Y-49.2
X121.336Y-49.2
X123.876Y-49.2
X126.416Y-49.2
X127.94Y-97.46
X128.956Y-49.2
X130.48Y-97.46
X131.496Y-49.2
X133.02Y-97.46
X134.036Y-49.2
X135.56Y-97.46
X136.576Y-49.2
X138.1Y-97.46
X139.116Y-49.2
X140.64Y-97.46
X141.656Y-49.2
X143.18Y-97.46
X145.72Y-49.2
X145.72Y-97.46
X148.26Y-49.2
X150.8Y-49.2
X150.8Y-97.46
X153.34Y-49.2
X153.34Y-97.46
X155.88Y-49.2
X155.88Y-97.46
X158.42Y-49.2
X158.42Y-97.46
X160.96Y-49.2
X160.96Y-97.46
X163.5Y-49.2
X163.5Y-97.46
X163.6Y-69.53
X163.6Y-72.07
X163.6Y-74.61
X166.14Y-69.53
X166.14Y-72.07
X166.14Y-74.61
X166.36Y-81.245
X166.36Y-83.785
T6
X109.11Y-52.89
X109.11Y-59.39
X113.61Y-52.89
X113.61Y-59.39
M30
