G04 #@! TF.GenerationSoftware,KiCad,Pcbnew,8.0.7*
G04 #@! TF.CreationDate,2025-01-27T00:17:59+09:00*
G04 #@! TF.ProjectId,arduino_clone,61726475-696e-46f5-9f63-6c6f6e652e6b,rev?*
G04 #@! TF.SameCoordinates,Original*
G04 #@! TF.FileFunction,Soldermask,Top*
G04 #@! TF.FilePolarity,Negative*
%FSLAX46Y46*%
G04 Gerber Fmt 4.6, Leading zero omitted, Abs format (unit mm)*
G04 Created by KiCad (PCBNEW 8.0.7) date 2025-01-27 00:17:59*
%MOMM*%
%LPD*%
G01*
G04 APERTURE LIST*
%ADD10C,2.000000*%
%ADD11O,1.700000X1.700000*%
%ADD12R,1.700000X1.700000*%
%ADD13C,1.500000*%
%ADD14R,1.600000X2.400000*%
%ADD15O,1.600000X2.400000*%
%ADD16C,1.400000*%
%ADD17O,1.400000X1.400000*%
%ADD18R,1.800000X1.800000*%
%ADD19C,1.800000*%
%ADD20R,1.600000X1.600000*%
%ADD21O,1.600000X1.600000*%
%ADD22C,1.600000*%
%ADD23C,3.200000*%
G04 APERTURE END LIST*
D10*
X113610000Y-52890000D03*
X113610000Y-59390000D03*
X109110000Y-52890000D03*
X109110000Y-59390000D03*
D11*
X166360000Y-83785000D03*
D12*
X166360000Y-81245000D03*
X104455000Y-77675000D03*
D11*
X104455000Y-75135000D03*
D13*
X135580000Y-64440000D03*
X135580000Y-66880000D03*
X135580000Y-69320000D03*
D14*
X155890000Y-76050000D03*
D15*
X153350000Y-76050000D03*
X150810000Y-76050000D03*
X148270000Y-76050000D03*
X145730000Y-76050000D03*
X143190000Y-76050000D03*
X140650000Y-76050000D03*
X138110000Y-76050000D03*
X135570000Y-76050000D03*
X133030000Y-76050000D03*
X130490000Y-76050000D03*
X127950000Y-76050000D03*
X125410000Y-76050000D03*
X122870000Y-76050000D03*
X122870000Y-83670000D03*
X125410000Y-83670000D03*
X127950000Y-83670000D03*
X130490000Y-83670000D03*
X133030000Y-83670000D03*
X135570000Y-83670000D03*
X138110000Y-83670000D03*
X140650000Y-83670000D03*
X143190000Y-83670000D03*
X145730000Y-83670000D03*
X148270000Y-83670000D03*
X150810000Y-83670000D03*
X153350000Y-83670000D03*
X155890000Y-83670000D03*
D16*
X126500000Y-53440000D03*
D17*
X118880000Y-53440000D03*
D16*
X107830000Y-63700000D03*
D17*
X115450000Y-63700000D03*
D16*
X112090000Y-84170000D03*
D17*
X112090000Y-91790000D03*
D12*
X104225000Y-86705000D03*
D11*
X104225000Y-84165000D03*
D12*
X163600000Y-69530000D03*
D11*
X166140000Y-69530000D03*
X163600000Y-72070000D03*
X166140000Y-72070000D03*
X163600000Y-74610000D03*
X166140000Y-74610000D03*
D12*
X104340000Y-67190000D03*
D11*
X104340000Y-64650000D03*
X104340000Y-62110000D03*
X104340000Y-59570000D03*
X104340000Y-57030000D03*
D18*
X118870000Y-58700000D03*
D19*
X118870000Y-56160000D03*
D20*
X107840000Y-70540000D03*
D21*
X115460000Y-70540000D03*
D18*
X116160000Y-89260000D03*
D19*
X116160000Y-91800000D03*
D22*
X110430000Y-67130000D03*
X115430000Y-67130000D03*
X130710000Y-71870000D03*
X130710000Y-66870000D03*
X140790000Y-64150000D03*
X140790000Y-59150000D03*
X140810000Y-71850000D03*
X140810000Y-66850000D03*
X135790000Y-87250000D03*
X140790000Y-87250000D03*
D12*
X127940000Y-97460000D03*
D11*
X130480000Y-97460000D03*
X133020000Y-97460000D03*
X135560000Y-97460000D03*
X138100000Y-97460000D03*
X140640000Y-97460000D03*
X143180000Y-97460000D03*
X145720000Y-97460000D03*
D12*
X150800000Y-97460000D03*
D11*
X153340000Y-97460000D03*
X155880000Y-97460000D03*
X158420000Y-97460000D03*
X160960000Y-97460000D03*
X163500000Y-97460000D03*
D12*
X118796000Y-49200000D03*
D11*
X121336000Y-49200000D03*
X123876000Y-49200000D03*
X126416000Y-49200000D03*
X128956000Y-49200000D03*
X131496000Y-49200000D03*
X134036000Y-49200000D03*
X136576000Y-49200000D03*
X139116000Y-49200000D03*
X141656000Y-49200000D03*
D12*
X145720000Y-49200000D03*
D11*
X148260000Y-49200000D03*
X150800000Y-49200000D03*
X153340000Y-49200000D03*
X155880000Y-49200000D03*
X158420000Y-49200000D03*
X160960000Y-49200000D03*
X163500000Y-49200000D03*
D23*
X115240000Y-49200000D03*
X113970000Y-97460000D03*
X166040000Y-64440000D03*
X166040000Y-92380000D03*
M02*
