%TF.GenerationSoftware,KiCad,Pcbnew,8.0.7*%
%TF.CreationDate,2025-01-27T00:18:21+09:00*%
%TF.ProjectId,arduino_clone,61726475-696e-46f5-9f63-6c6f6e652e6b,rev?*%
%TF.SameCoordinates,Original*%
%TF.FileFunction,Drillmap*%
%TF.FilePolarity,Positive*%
%FSLAX45Y45*%
G04 Gerber Fmt 4.5, Leading zero omitted, Abs format (unit mm)*
G04 Created by KiCad (PCBNEW 8.0.7) date 2025-01-27 00:18:21*
%MOMM*%
%LPD*%
G01*
G04 APERTURE LIST*
%ADD10C,0.150000*%
%ADD11C,0.200000*%
%ADD12C,0.100000*%
%ADD13C,0.110000*%
G04 APERTURE END LIST*
D10*
X10050000Y-10000000D02*
X10000000Y-10000000D01*
X10076200Y-4666000D02*
X10000000Y-4666000D01*
X10000000Y-4742200D02*
X10000000Y-4666000D01*
X16858000Y-6190000D02*
X16858000Y-4666000D01*
X16350000Y-4666000D02*
X16858000Y-4666000D01*
X16858000Y-9619000D02*
X16858000Y-10000000D01*
X16527800Y-10000000D02*
X16858000Y-10000000D01*
X10000000Y-10000000D02*
X10000000Y-4742200D01*
X16858000Y-6190000D02*
X16858000Y-9619000D01*
X16527800Y-10000000D02*
X10050000Y-10000000D01*
X10076200Y-4666000D02*
X16350000Y-4666000D01*
D11*
D12*
X10919000Y-8396000D02*
X10959000Y-8436000D01*
X10959000Y-8396000D02*
X10919000Y-8436000D01*
X11201000Y-7896000D02*
X11241000Y-7936000D01*
X11241000Y-7896000D02*
X11201000Y-7936000D01*
X11244000Y-8018000D02*
X11284000Y-8058000D01*
X11284000Y-8018000D02*
X11244000Y-8058000D01*
X11484000Y-8210000D02*
X11524000Y-8250000D01*
X11524000Y-8210000D02*
X11484000Y-8250000D01*
X11727000Y-7134000D02*
X11767000Y-7174000D01*
X11767000Y-7134000D02*
X11727000Y-7174000D01*
X11835000Y-7277000D02*
X11875000Y-7317000D01*
X11875000Y-7277000D02*
X11835000Y-7317000D01*
X11923000Y-6760000D02*
X11963000Y-6800000D01*
X11963000Y-6760000D02*
X11923000Y-6800000D01*
X11989000Y-7047000D02*
X12029000Y-7087000D01*
X12029000Y-7047000D02*
X11989000Y-7087000D01*
X12265000Y-8113000D02*
X12305000Y-8153000D01*
X12305000Y-8113000D02*
X12265000Y-8153000D01*
X13309000Y-7896000D02*
X13349000Y-7936000D01*
X13349000Y-7896000D02*
X13309000Y-7936000D01*
X13311000Y-8018000D02*
X13351000Y-8058000D01*
X13351000Y-8018000D02*
X13311000Y-8058000D01*
X13406000Y-9007000D02*
X13446000Y-9047000D01*
X13446000Y-9007000D02*
X13406000Y-9047000D01*
X13477000Y-7857563D02*
X13517000Y-7897563D01*
X13517000Y-7857563D02*
X13477000Y-7897563D01*
X13479000Y-7961000D02*
X13519000Y-8001000D01*
X13519000Y-7961000D02*
X13479000Y-8001000D01*
X13734000Y-8106000D02*
X13774000Y-8146000D01*
X13774000Y-8106000D02*
X13734000Y-8146000D01*
X13736000Y-8010000D02*
X13776000Y-8050000D01*
X13776000Y-8010000D02*
X13736000Y-8050000D01*
X13788000Y-7885000D02*
X13828000Y-7925000D01*
X13828000Y-7885000D02*
X13788000Y-7925000D01*
X14776000Y-7878000D02*
X14816000Y-7918000D01*
X14816000Y-7878000D02*
X14776000Y-7918000D01*
X15094000Y-5907000D02*
X15134000Y-5947000D01*
X15134000Y-5907000D02*
X15094000Y-5947000D01*
X15196000Y-7891000D02*
X15236000Y-7931000D01*
X15236000Y-7891000D02*
X15196000Y-7931000D01*
X16075000Y-8754000D02*
X16115000Y-8794000D01*
X16115000Y-8754000D02*
X16075000Y-8794000D01*
X16510000Y-5898000D02*
X16550000Y-5938000D01*
X16550000Y-5898000D02*
X16510000Y-5938000D01*
X10818000Y-6370000D02*
G75*
G02*
X10748000Y-6370000I-35000J0D01*
G01*
X10748000Y-6370000D02*
G75*
G02*
X10818000Y-6370000I35000J0D01*
G01*
X11244000Y-8417000D02*
G75*
G02*
X11174000Y-8417000I-35000J0D01*
G01*
X11174000Y-8417000D02*
G75*
G02*
X11244000Y-8417000I35000J0D01*
G01*
X11244000Y-9179000D02*
G75*
G02*
X11174000Y-9179000I-35000J0D01*
G01*
X11174000Y-9179000D02*
G75*
G02*
X11244000Y-9179000I35000J0D01*
G01*
X11580000Y-6370000D02*
G75*
G02*
X11510000Y-6370000I-35000J0D01*
G01*
X11510000Y-6370000D02*
G75*
G02*
X11580000Y-6370000I35000J0D01*
G01*
X11923000Y-5344000D02*
G75*
G02*
X11853000Y-5344000I-35000J0D01*
G01*
X11853000Y-5344000D02*
G75*
G02*
X11923000Y-5344000I35000J0D01*
G01*
X12685000Y-5344000D02*
G75*
G02*
X12615000Y-5344000I-35000J0D01*
G01*
X12615000Y-5344000D02*
G75*
G02*
X12685000Y-5344000I35000J0D01*
G01*
X10784000Y-7014000D02*
X10784000Y-7094000D01*
X10744000Y-7054000D02*
X10824000Y-7054000D01*
X11043000Y-6673000D02*
X11043000Y-6753000D01*
X11003000Y-6713000D02*
X11083000Y-6713000D01*
X11543000Y-6673000D02*
X11543000Y-6753000D01*
X11503000Y-6713000D02*
X11583000Y-6713000D01*
X11546000Y-7014000D02*
X11546000Y-7094000D01*
X11506000Y-7054000D02*
X11586000Y-7054000D01*
X12287000Y-7565000D02*
X12287000Y-7645000D01*
X12247000Y-7605000D02*
X12327000Y-7605000D01*
X12287000Y-8327000D02*
X12287000Y-8407000D01*
X12247000Y-8367000D02*
X12327000Y-8367000D01*
X12541000Y-7565000D02*
X12541000Y-7645000D01*
X12501000Y-7605000D02*
X12581000Y-7605000D01*
X12541000Y-8327000D02*
X12541000Y-8407000D01*
X12501000Y-8367000D02*
X12581000Y-8367000D01*
X12795000Y-7565000D02*
X12795000Y-7645000D01*
X12755000Y-7605000D02*
X12835000Y-7605000D01*
X12795000Y-8327000D02*
X12795000Y-8407000D01*
X12755000Y-8367000D02*
X12835000Y-8367000D01*
X13049000Y-7565000D02*
X13049000Y-7645000D01*
X13009000Y-7605000D02*
X13089000Y-7605000D01*
X13049000Y-8327000D02*
X13049000Y-8407000D01*
X13009000Y-8367000D02*
X13089000Y-8367000D01*
X13071000Y-6647000D02*
X13071000Y-6727000D01*
X13031000Y-6687000D02*
X13111000Y-6687000D01*
X13071000Y-7147000D02*
X13071000Y-7227000D01*
X13031000Y-7187000D02*
X13111000Y-7187000D01*
X13303000Y-7565000D02*
X13303000Y-7645000D01*
X13263000Y-7605000D02*
X13343000Y-7605000D01*
X13303000Y-8327000D02*
X13303000Y-8407000D01*
X13263000Y-8367000D02*
X13343000Y-8367000D01*
X13557000Y-7565000D02*
X13557000Y-7645000D01*
X13517000Y-7605000D02*
X13597000Y-7605000D01*
X13557000Y-8327000D02*
X13557000Y-8407000D01*
X13517000Y-8367000D02*
X13597000Y-8367000D01*
X13558000Y-6404000D02*
X13558000Y-6484000D01*
X13518000Y-6444000D02*
X13598000Y-6444000D01*
X13558000Y-6648000D02*
X13558000Y-6728000D01*
X13518000Y-6688000D02*
X13598000Y-6688000D01*
X13558000Y-6892000D02*
X13558000Y-6972000D01*
X13518000Y-6932000D02*
X13598000Y-6932000D01*
X13579000Y-8685000D02*
X13579000Y-8765000D01*
X13539000Y-8725000D02*
X13619000Y-8725000D01*
X13811000Y-7565000D02*
X13811000Y-7645000D01*
X13771000Y-7605000D02*
X13851000Y-7605000D01*
X13811000Y-8327000D02*
X13811000Y-8407000D01*
X13771000Y-8367000D02*
X13851000Y-8367000D01*
X14065000Y-7565000D02*
X14065000Y-7645000D01*
X14025000Y-7605000D02*
X14105000Y-7605000D01*
X14065000Y-8327000D02*
X14065000Y-8407000D01*
X14025000Y-8367000D02*
X14105000Y-8367000D01*
X14079000Y-5875000D02*
X14079000Y-5955000D01*
X14039000Y-5915000D02*
X14119000Y-5915000D01*
X14079000Y-6375000D02*
X14079000Y-6455000D01*
X14039000Y-6415000D02*
X14119000Y-6415000D01*
X14079000Y-8685000D02*
X14079000Y-8765000D01*
X14039000Y-8725000D02*
X14119000Y-8725000D01*
X14081000Y-6645000D02*
X14081000Y-6725000D01*
X14041000Y-6685000D02*
X14121000Y-6685000D01*
X14081000Y-7145000D02*
X14081000Y-7225000D01*
X14041000Y-7185000D02*
X14121000Y-7185000D01*
X14319000Y-7565000D02*
X14319000Y-7645000D01*
X14279000Y-7605000D02*
X14359000Y-7605000D01*
X14319000Y-8327000D02*
X14319000Y-8407000D01*
X14279000Y-8367000D02*
X14359000Y-8367000D01*
X14573000Y-7565000D02*
X14573000Y-7645000D01*
X14533000Y-7605000D02*
X14613000Y-7605000D01*
X14573000Y-8327000D02*
X14573000Y-8407000D01*
X14533000Y-8367000D02*
X14613000Y-8367000D01*
X14827000Y-7565000D02*
X14827000Y-7645000D01*
X14787000Y-7605000D02*
X14867000Y-7605000D01*
X14827000Y-8327000D02*
X14827000Y-8407000D01*
X14787000Y-8367000D02*
X14867000Y-8367000D01*
X15081000Y-7565000D02*
X15081000Y-7645000D01*
X15041000Y-7605000D02*
X15121000Y-7605000D01*
X15081000Y-8327000D02*
X15081000Y-8407000D01*
X15041000Y-8367000D02*
X15121000Y-8367000D01*
X15335000Y-7565000D02*
X15335000Y-7645000D01*
X15295000Y-7605000D02*
X15375000Y-7605000D01*
X15335000Y-8327000D02*
X15335000Y-8407000D01*
X15295000Y-8367000D02*
X15375000Y-8367000D01*
X15589000Y-7565000D02*
X15589000Y-7645000D01*
X15549000Y-7605000D02*
X15629000Y-7605000D01*
X15589000Y-8327000D02*
X15589000Y-8407000D01*
X15549000Y-8367000D02*
X15629000Y-8367000D01*
X11647820Y-8957820D02*
X11647820Y-8894180D01*
X11584180Y-8894180D01*
X11584180Y-8957820D01*
X11647820Y-8957820D01*
X11647820Y-9211820D02*
X11647820Y-9148180D01*
X11584180Y-9148180D01*
X11584180Y-9211820D01*
X11647820Y-9211820D01*
X11918820Y-5647820D02*
X11918820Y-5584180D01*
X11855180Y-5584180D01*
X11855180Y-5647820D01*
X11918820Y-5647820D01*
X11918820Y-5901820D02*
X11918820Y-5838180D01*
X11855180Y-5838180D01*
X11855180Y-5901820D01*
X11918820Y-5901820D01*
X10422500Y-8466500D02*
X10472500Y-8416500D01*
X10422500Y-8366500D01*
X10372500Y-8416500D01*
X10422500Y-8466500D01*
X10422500Y-8720500D02*
X10472500Y-8670500D01*
X10422500Y-8620500D01*
X10372500Y-8670500D01*
X10422500Y-8720500D01*
X10434000Y-5753000D02*
X10484000Y-5703000D01*
X10434000Y-5653000D01*
X10384000Y-5703000D01*
X10434000Y-5753000D01*
X10434000Y-6007000D02*
X10484000Y-5957000D01*
X10434000Y-5907000D01*
X10384000Y-5957000D01*
X10434000Y-6007000D01*
X10434000Y-6261000D02*
X10484000Y-6211000D01*
X10434000Y-6161000D01*
X10384000Y-6211000D01*
X10434000Y-6261000D01*
X10434000Y-6515000D02*
X10484000Y-6465000D01*
X10434000Y-6415000D01*
X10384000Y-6465000D01*
X10434000Y-6515000D01*
X10434000Y-6769000D02*
X10484000Y-6719000D01*
X10434000Y-6669000D01*
X10384000Y-6719000D01*
X10434000Y-6769000D01*
X10445500Y-7563500D02*
X10495500Y-7513500D01*
X10445500Y-7463500D01*
X10395500Y-7513500D01*
X10445500Y-7563500D01*
X10445500Y-7817500D02*
X10495500Y-7767500D01*
X10445500Y-7717500D01*
X10395500Y-7767500D01*
X10445500Y-7817500D01*
X11879600Y-4970000D02*
X11929600Y-4920000D01*
X11879600Y-4870000D01*
X11829600Y-4920000D01*
X11879600Y-4970000D01*
X12133600Y-4970000D02*
X12183600Y-4920000D01*
X12133600Y-4870000D01*
X12083600Y-4920000D01*
X12133600Y-4970000D01*
X12387600Y-4970000D02*
X12437600Y-4920000D01*
X12387600Y-4870000D01*
X12337600Y-4920000D01*
X12387600Y-4970000D01*
X12641600Y-4970000D02*
X12691600Y-4920000D01*
X12641600Y-4870000D01*
X12591600Y-4920000D01*
X12641600Y-4970000D01*
X12794000Y-9796000D02*
X12844000Y-9746000D01*
X12794000Y-9696000D01*
X12744000Y-9746000D01*
X12794000Y-9796000D01*
X12895600Y-4970000D02*
X12945600Y-4920000D01*
X12895600Y-4870000D01*
X12845600Y-4920000D01*
X12895600Y-4970000D01*
X13048000Y-9796000D02*
X13098000Y-9746000D01*
X13048000Y-9696000D01*
X12998000Y-9746000D01*
X13048000Y-9796000D01*
X13149600Y-4970000D02*
X13199600Y-4920000D01*
X13149600Y-4870000D01*
X13099600Y-4920000D01*
X13149600Y-4970000D01*
X13302000Y-9796000D02*
X13352000Y-9746000D01*
X13302000Y-9696000D01*
X13252000Y-9746000D01*
X13302000Y-9796000D01*
X13403600Y-4970000D02*
X13453600Y-4920000D01*
X13403600Y-4870000D01*
X13353600Y-4920000D01*
X13403600Y-4970000D01*
X13556000Y-9796000D02*
X13606000Y-9746000D01*
X13556000Y-9696000D01*
X13506000Y-9746000D01*
X13556000Y-9796000D01*
X13657600Y-4970000D02*
X13707600Y-4920000D01*
X13657600Y-4870000D01*
X13607600Y-4920000D01*
X13657600Y-4970000D01*
X13810000Y-9796000D02*
X13860000Y-9746000D01*
X13810000Y-9696000D01*
X13760000Y-9746000D01*
X13810000Y-9796000D01*
X13911600Y-4970000D02*
X13961600Y-4920000D01*
X13911600Y-4870000D01*
X13861600Y-4920000D01*
X13911600Y-4970000D01*
X14064000Y-9796000D02*
X14114000Y-9746000D01*
X14064000Y-9696000D01*
X14014000Y-9746000D01*
X14064000Y-9796000D01*
X14165600Y-4970000D02*
X14215600Y-4920000D01*
X14165600Y-4870000D01*
X14115600Y-4920000D01*
X14165600Y-4970000D01*
X14318000Y-9796000D02*
X14368000Y-9746000D01*
X14318000Y-9696000D01*
X14268000Y-9746000D01*
X14318000Y-9796000D01*
X14572000Y-4970000D02*
X14622000Y-4920000D01*
X14572000Y-4870000D01*
X14522000Y-4920000D01*
X14572000Y-4970000D01*
X14572000Y-9796000D02*
X14622000Y-9746000D01*
X14572000Y-9696000D01*
X14522000Y-9746000D01*
X14572000Y-9796000D01*
X14826000Y-4970000D02*
X14876000Y-4920000D01*
X14826000Y-4870000D01*
X14776000Y-4920000D01*
X14826000Y-4970000D01*
X15080000Y-4970000D02*
X15130000Y-4920000D01*
X15080000Y-4870000D01*
X15030000Y-4920000D01*
X15080000Y-4970000D01*
X15080000Y-9796000D02*
X15130000Y-9746000D01*
X15080000Y-9696000D01*
X15030000Y-9746000D01*
X15080000Y-9796000D01*
X15334000Y-4970000D02*
X15384000Y-4920000D01*
X15334000Y-4870000D01*
X15284000Y-4920000D01*
X15334000Y-4970000D01*
X15334000Y-9796000D02*
X15384000Y-9746000D01*
X15334000Y-9696000D01*
X15284000Y-9746000D01*
X15334000Y-9796000D01*
X15588000Y-4970000D02*
X15638000Y-4920000D01*
X15588000Y-4870000D01*
X15538000Y-4920000D01*
X15588000Y-4970000D01*
X15588000Y-9796000D02*
X15638000Y-9746000D01*
X15588000Y-9696000D01*
X15538000Y-9746000D01*
X15588000Y-9796000D01*
X15842000Y-4970000D02*
X15892000Y-4920000D01*
X15842000Y-4870000D01*
X15792000Y-4920000D01*
X15842000Y-4970000D01*
X15842000Y-9796000D02*
X15892000Y-9746000D01*
X15842000Y-9696000D01*
X15792000Y-9746000D01*
X15842000Y-9796000D01*
X16096000Y-4970000D02*
X16146000Y-4920000D01*
X16096000Y-4870000D01*
X16046000Y-4920000D01*
X16096000Y-4970000D01*
X16096000Y-9796000D02*
X16146000Y-9746000D01*
X16096000Y-9696000D01*
X16046000Y-9746000D01*
X16096000Y-9796000D01*
X16350000Y-4970000D02*
X16400000Y-4920000D01*
X16350000Y-4870000D01*
X16300000Y-4920000D01*
X16350000Y-4970000D01*
X16350000Y-9796000D02*
X16400000Y-9746000D01*
X16350000Y-9696000D01*
X16300000Y-9746000D01*
X16350000Y-9796000D01*
X16360000Y-7003000D02*
X16410000Y-6953000D01*
X16360000Y-6903000D01*
X16310000Y-6953000D01*
X16360000Y-7003000D01*
X16360000Y-7257000D02*
X16410000Y-7207000D01*
X16360000Y-7157000D01*
X16310000Y-7207000D01*
X16360000Y-7257000D01*
X16360000Y-7511000D02*
X16410000Y-7461000D01*
X16360000Y-7411000D01*
X16310000Y-7461000D01*
X16360000Y-7511000D01*
X16614000Y-7003000D02*
X16664000Y-6953000D01*
X16614000Y-6903000D01*
X16564000Y-6953000D01*
X16614000Y-7003000D01*
X16614000Y-7257000D02*
X16664000Y-7207000D01*
X16614000Y-7157000D01*
X16564000Y-7207000D01*
X16614000Y-7257000D01*
X16614000Y-7511000D02*
X16664000Y-7461000D01*
X16614000Y-7411000D01*
X16564000Y-7461000D01*
X16614000Y-7511000D01*
X16636000Y-8174500D02*
X16686000Y-8124500D01*
X16636000Y-8074500D01*
X16586000Y-8124500D01*
X16636000Y-8174500D01*
X16636000Y-8428500D02*
X16686000Y-8378500D01*
X16636000Y-8328500D01*
X16586000Y-8378500D01*
X16636000Y-8428500D01*
D13*
X10856000Y-5234000D02*
X10966000Y-5344000D01*
X10966000Y-5234000D02*
X10856000Y-5344000D01*
X10966000Y-5289000D02*
G75*
G02*
X10856000Y-5289000I-55000J0D01*
G01*
X10856000Y-5289000D02*
G75*
G02*
X10966000Y-5289000I55000J0D01*
G01*
X10856000Y-5884000D02*
X10966000Y-5994000D01*
X10966000Y-5884000D02*
X10856000Y-5994000D01*
X10966000Y-5939000D02*
G75*
G02*
X10856000Y-5939000I-55000J0D01*
G01*
X10856000Y-5939000D02*
G75*
G02*
X10966000Y-5939000I55000J0D01*
G01*
X11306000Y-5234000D02*
X11416000Y-5344000D01*
X11416000Y-5234000D02*
X11306000Y-5344000D01*
X11416000Y-5289000D02*
G75*
G02*
X11306000Y-5289000I-55000J0D01*
G01*
X11306000Y-5289000D02*
G75*
G02*
X11416000Y-5289000I55000J0D01*
G01*
X11306000Y-5884000D02*
X11416000Y-5994000D01*
X11416000Y-5884000D02*
X11306000Y-5994000D01*
X11416000Y-5939000D02*
G75*
G02*
X11306000Y-5939000I-55000J0D01*
G01*
X11306000Y-5939000D02*
G75*
G02*
X11416000Y-5939000I55000J0D01*
G01*
D11*
X10253277Y-10318984D02*
X10253277Y-10118984D01*
X10253277Y-10118984D02*
X10300896Y-10118984D01*
X10300896Y-10118984D02*
X10329467Y-10128508D01*
X10329467Y-10128508D02*
X10348515Y-10147555D01*
X10348515Y-10147555D02*
X10358039Y-10166603D01*
X10358039Y-10166603D02*
X10367563Y-10204698D01*
X10367563Y-10204698D02*
X10367563Y-10233270D01*
X10367563Y-10233270D02*
X10358039Y-10271365D01*
X10358039Y-10271365D02*
X10348515Y-10290412D01*
X10348515Y-10290412D02*
X10329467Y-10309460D01*
X10329467Y-10309460D02*
X10300896Y-10318984D01*
X10300896Y-10318984D02*
X10253277Y-10318984D01*
X10453277Y-10318984D02*
X10453277Y-10185650D01*
X10453277Y-10223746D02*
X10462801Y-10204698D01*
X10462801Y-10204698D02*
X10472324Y-10195174D01*
X10472324Y-10195174D02*
X10491372Y-10185650D01*
X10491372Y-10185650D02*
X10510420Y-10185650D01*
X10577086Y-10318984D02*
X10577086Y-10185650D01*
X10577086Y-10118984D02*
X10567563Y-10128508D01*
X10567563Y-10128508D02*
X10577086Y-10138031D01*
X10577086Y-10138031D02*
X10586610Y-10128508D01*
X10586610Y-10128508D02*
X10577086Y-10118984D01*
X10577086Y-10118984D02*
X10577086Y-10138031D01*
X10700896Y-10318984D02*
X10681848Y-10309460D01*
X10681848Y-10309460D02*
X10672324Y-10290412D01*
X10672324Y-10290412D02*
X10672324Y-10118984D01*
X10805658Y-10318984D02*
X10786610Y-10309460D01*
X10786610Y-10309460D02*
X10777086Y-10290412D01*
X10777086Y-10290412D02*
X10777086Y-10118984D01*
X11034229Y-10318984D02*
X11034229Y-10118984D01*
X11034229Y-10118984D02*
X11100896Y-10261841D01*
X11100896Y-10261841D02*
X11167563Y-10118984D01*
X11167563Y-10118984D02*
X11167563Y-10318984D01*
X11348515Y-10318984D02*
X11348515Y-10214222D01*
X11348515Y-10214222D02*
X11338991Y-10195174D01*
X11338991Y-10195174D02*
X11319943Y-10185650D01*
X11319943Y-10185650D02*
X11281848Y-10185650D01*
X11281848Y-10185650D02*
X11262801Y-10195174D01*
X11348515Y-10309460D02*
X11329467Y-10318984D01*
X11329467Y-10318984D02*
X11281848Y-10318984D01*
X11281848Y-10318984D02*
X11262801Y-10309460D01*
X11262801Y-10309460D02*
X11253277Y-10290412D01*
X11253277Y-10290412D02*
X11253277Y-10271365D01*
X11253277Y-10271365D02*
X11262801Y-10252317D01*
X11262801Y-10252317D02*
X11281848Y-10242793D01*
X11281848Y-10242793D02*
X11329467Y-10242793D01*
X11329467Y-10242793D02*
X11348515Y-10233270D01*
X11443753Y-10185650D02*
X11443753Y-10385650D01*
X11443753Y-10195174D02*
X11462801Y-10185650D01*
X11462801Y-10185650D02*
X11500896Y-10185650D01*
X11500896Y-10185650D02*
X11519943Y-10195174D01*
X11519943Y-10195174D02*
X11529467Y-10204698D01*
X11529467Y-10204698D02*
X11538991Y-10223746D01*
X11538991Y-10223746D02*
X11538991Y-10280889D01*
X11538991Y-10280889D02*
X11529467Y-10299936D01*
X11529467Y-10299936D02*
X11519943Y-10309460D01*
X11519943Y-10309460D02*
X11500896Y-10318984D01*
X11500896Y-10318984D02*
X11462801Y-10318984D01*
X11462801Y-10318984D02*
X11443753Y-10309460D01*
X11624705Y-10299936D02*
X11634229Y-10309460D01*
X11634229Y-10309460D02*
X11624705Y-10318984D01*
X11624705Y-10318984D02*
X11615182Y-10309460D01*
X11615182Y-10309460D02*
X11624705Y-10299936D01*
X11624705Y-10299936D02*
X11624705Y-10318984D01*
X11624705Y-10195174D02*
X11634229Y-10204698D01*
X11634229Y-10204698D02*
X11624705Y-10214222D01*
X11624705Y-10214222D02*
X11615182Y-10204698D01*
X11615182Y-10204698D02*
X11624705Y-10195174D01*
X11624705Y-10195174D02*
X11624705Y-10214222D01*
D12*
X9952500Y-10627500D02*
X9992500Y-10667500D01*
X9992500Y-10627500D02*
X9952500Y-10667500D01*
D11*
X10291372Y-10538984D02*
X10310420Y-10538984D01*
X10310420Y-10538984D02*
X10329467Y-10548508D01*
X10329467Y-10548508D02*
X10338991Y-10558031D01*
X10338991Y-10558031D02*
X10348515Y-10577079D01*
X10348515Y-10577079D02*
X10358039Y-10615174D01*
X10358039Y-10615174D02*
X10358039Y-10662793D01*
X10358039Y-10662793D02*
X10348515Y-10700889D01*
X10348515Y-10700889D02*
X10338991Y-10719936D01*
X10338991Y-10719936D02*
X10329467Y-10729460D01*
X10329467Y-10729460D02*
X10310420Y-10738984D01*
X10310420Y-10738984D02*
X10291372Y-10738984D01*
X10291372Y-10738984D02*
X10272324Y-10729460D01*
X10272324Y-10729460D02*
X10262801Y-10719936D01*
X10262801Y-10719936D02*
X10253277Y-10700889D01*
X10253277Y-10700889D02*
X10243753Y-10662793D01*
X10243753Y-10662793D02*
X10243753Y-10615174D01*
X10243753Y-10615174D02*
X10253277Y-10577079D01*
X10253277Y-10577079D02*
X10262801Y-10558031D01*
X10262801Y-10558031D02*
X10272324Y-10548508D01*
X10272324Y-10548508D02*
X10291372Y-10538984D01*
X10443753Y-10719936D02*
X10453277Y-10729460D01*
X10453277Y-10729460D02*
X10443753Y-10738984D01*
X10443753Y-10738984D02*
X10434229Y-10729460D01*
X10434229Y-10729460D02*
X10443753Y-10719936D01*
X10443753Y-10719936D02*
X10443753Y-10738984D01*
X10624705Y-10605650D02*
X10624705Y-10738984D01*
X10577086Y-10529460D02*
X10529467Y-10672317D01*
X10529467Y-10672317D02*
X10653277Y-10672317D01*
X10767563Y-10538984D02*
X10786610Y-10538984D01*
X10786610Y-10538984D02*
X10805658Y-10548508D01*
X10805658Y-10548508D02*
X10815182Y-10558031D01*
X10815182Y-10558031D02*
X10824705Y-10577079D01*
X10824705Y-10577079D02*
X10834229Y-10615174D01*
X10834229Y-10615174D02*
X10834229Y-10662793D01*
X10834229Y-10662793D02*
X10824705Y-10700889D01*
X10824705Y-10700889D02*
X10815182Y-10719936D01*
X10815182Y-10719936D02*
X10805658Y-10729460D01*
X10805658Y-10729460D02*
X10786610Y-10738984D01*
X10786610Y-10738984D02*
X10767563Y-10738984D01*
X10767563Y-10738984D02*
X10748515Y-10729460D01*
X10748515Y-10729460D02*
X10738991Y-10719936D01*
X10738991Y-10719936D02*
X10729467Y-10700889D01*
X10729467Y-10700889D02*
X10719944Y-10662793D01*
X10719944Y-10662793D02*
X10719944Y-10615174D01*
X10719944Y-10615174D02*
X10729467Y-10577079D01*
X10729467Y-10577079D02*
X10738991Y-10558031D01*
X10738991Y-10558031D02*
X10748515Y-10548508D01*
X10748515Y-10548508D02*
X10767563Y-10538984D01*
X10958039Y-10538984D02*
X10977086Y-10538984D01*
X10977086Y-10538984D02*
X10996134Y-10548508D01*
X10996134Y-10548508D02*
X11005658Y-10558031D01*
X11005658Y-10558031D02*
X11015182Y-10577079D01*
X11015182Y-10577079D02*
X11024705Y-10615174D01*
X11024705Y-10615174D02*
X11024705Y-10662793D01*
X11024705Y-10662793D02*
X11015182Y-10700889D01*
X11015182Y-10700889D02*
X11005658Y-10719936D01*
X11005658Y-10719936D02*
X10996134Y-10729460D01*
X10996134Y-10729460D02*
X10977086Y-10738984D01*
X10977086Y-10738984D02*
X10958039Y-10738984D01*
X10958039Y-10738984D02*
X10938991Y-10729460D01*
X10938991Y-10729460D02*
X10929467Y-10719936D01*
X10929467Y-10719936D02*
X10919944Y-10700889D01*
X10919944Y-10700889D02*
X10910420Y-10662793D01*
X10910420Y-10662793D02*
X10910420Y-10615174D01*
X10910420Y-10615174D02*
X10919944Y-10577079D01*
X10919944Y-10577079D02*
X10929467Y-10558031D01*
X10929467Y-10558031D02*
X10938991Y-10548508D01*
X10938991Y-10548508D02*
X10958039Y-10538984D01*
X11110420Y-10738984D02*
X11110420Y-10605650D01*
X11110420Y-10624698D02*
X11119944Y-10615174D01*
X11119944Y-10615174D02*
X11138991Y-10605650D01*
X11138991Y-10605650D02*
X11167563Y-10605650D01*
X11167563Y-10605650D02*
X11186610Y-10615174D01*
X11186610Y-10615174D02*
X11196134Y-10634222D01*
X11196134Y-10634222D02*
X11196134Y-10738984D01*
X11196134Y-10634222D02*
X11205658Y-10615174D01*
X11205658Y-10615174D02*
X11224705Y-10605650D01*
X11224705Y-10605650D02*
X11253277Y-10605650D01*
X11253277Y-10605650D02*
X11272324Y-10615174D01*
X11272324Y-10615174D02*
X11281848Y-10634222D01*
X11281848Y-10634222D02*
X11281848Y-10738984D01*
X11377086Y-10738984D02*
X11377086Y-10605650D01*
X11377086Y-10624698D02*
X11386610Y-10615174D01*
X11386610Y-10615174D02*
X11405658Y-10605650D01*
X11405658Y-10605650D02*
X11434229Y-10605650D01*
X11434229Y-10605650D02*
X11453277Y-10615174D01*
X11453277Y-10615174D02*
X11462801Y-10634222D01*
X11462801Y-10634222D02*
X11462801Y-10738984D01*
X11462801Y-10634222D02*
X11472324Y-10615174D01*
X11472324Y-10615174D02*
X11491372Y-10605650D01*
X11491372Y-10605650D02*
X11519943Y-10605650D01*
X11519943Y-10605650D02*
X11538991Y-10615174D01*
X11538991Y-10615174D02*
X11548515Y-10634222D01*
X11548515Y-10634222D02*
X11548515Y-10738984D01*
X11938991Y-10529460D02*
X11767563Y-10786603D01*
X12196134Y-10538984D02*
X12215182Y-10538984D01*
X12215182Y-10538984D02*
X12234229Y-10548508D01*
X12234229Y-10548508D02*
X12243753Y-10558031D01*
X12243753Y-10558031D02*
X12253277Y-10577079D01*
X12253277Y-10577079D02*
X12262801Y-10615174D01*
X12262801Y-10615174D02*
X12262801Y-10662793D01*
X12262801Y-10662793D02*
X12253277Y-10700889D01*
X12253277Y-10700889D02*
X12243753Y-10719936D01*
X12243753Y-10719936D02*
X12234229Y-10729460D01*
X12234229Y-10729460D02*
X12215182Y-10738984D01*
X12215182Y-10738984D02*
X12196134Y-10738984D01*
X12196134Y-10738984D02*
X12177086Y-10729460D01*
X12177086Y-10729460D02*
X12167563Y-10719936D01*
X12167563Y-10719936D02*
X12158039Y-10700889D01*
X12158039Y-10700889D02*
X12148515Y-10662793D01*
X12148515Y-10662793D02*
X12148515Y-10615174D01*
X12148515Y-10615174D02*
X12158039Y-10577079D01*
X12158039Y-10577079D02*
X12167563Y-10558031D01*
X12167563Y-10558031D02*
X12177086Y-10548508D01*
X12177086Y-10548508D02*
X12196134Y-10538984D01*
X12348515Y-10719936D02*
X12358039Y-10729460D01*
X12358039Y-10729460D02*
X12348515Y-10738984D01*
X12348515Y-10738984D02*
X12338991Y-10729460D01*
X12338991Y-10729460D02*
X12348515Y-10719936D01*
X12348515Y-10719936D02*
X12348515Y-10738984D01*
X12481848Y-10538984D02*
X12500896Y-10538984D01*
X12500896Y-10538984D02*
X12519944Y-10548508D01*
X12519944Y-10548508D02*
X12529467Y-10558031D01*
X12529467Y-10558031D02*
X12538991Y-10577079D01*
X12538991Y-10577079D02*
X12548515Y-10615174D01*
X12548515Y-10615174D02*
X12548515Y-10662793D01*
X12548515Y-10662793D02*
X12538991Y-10700889D01*
X12538991Y-10700889D02*
X12529467Y-10719936D01*
X12529467Y-10719936D02*
X12519944Y-10729460D01*
X12519944Y-10729460D02*
X12500896Y-10738984D01*
X12500896Y-10738984D02*
X12481848Y-10738984D01*
X12481848Y-10738984D02*
X12462801Y-10729460D01*
X12462801Y-10729460D02*
X12453277Y-10719936D01*
X12453277Y-10719936D02*
X12443753Y-10700889D01*
X12443753Y-10700889D02*
X12434229Y-10662793D01*
X12434229Y-10662793D02*
X12434229Y-10615174D01*
X12434229Y-10615174D02*
X12443753Y-10577079D01*
X12443753Y-10577079D02*
X12453277Y-10558031D01*
X12453277Y-10558031D02*
X12462801Y-10548508D01*
X12462801Y-10548508D02*
X12481848Y-10538984D01*
X12738991Y-10738984D02*
X12624706Y-10738984D01*
X12681848Y-10738984D02*
X12681848Y-10538984D01*
X12681848Y-10538984D02*
X12662801Y-10567555D01*
X12662801Y-10567555D02*
X12643753Y-10586603D01*
X12643753Y-10586603D02*
X12624706Y-10596127D01*
X12919944Y-10538984D02*
X12824706Y-10538984D01*
X12824706Y-10538984D02*
X12815182Y-10634222D01*
X12815182Y-10634222D02*
X12824706Y-10624698D01*
X12824706Y-10624698D02*
X12843753Y-10615174D01*
X12843753Y-10615174D02*
X12891372Y-10615174D01*
X12891372Y-10615174D02*
X12910420Y-10624698D01*
X12910420Y-10624698D02*
X12919944Y-10634222D01*
X12919944Y-10634222D02*
X12929467Y-10653270D01*
X12929467Y-10653270D02*
X12929467Y-10700889D01*
X12929467Y-10700889D02*
X12919944Y-10719936D01*
X12919944Y-10719936D02*
X12910420Y-10729460D01*
X12910420Y-10729460D02*
X12891372Y-10738984D01*
X12891372Y-10738984D02*
X12843753Y-10738984D01*
X12843753Y-10738984D02*
X12824706Y-10729460D01*
X12824706Y-10729460D02*
X12815182Y-10719936D01*
X12996134Y-10538984D02*
X13129467Y-10538984D01*
X13129467Y-10538984D02*
X13043753Y-10738984D01*
X13196134Y-10538984D02*
X13196134Y-10577079D01*
X13272325Y-10538984D02*
X13272325Y-10577079D01*
X13567563Y-10815174D02*
X13558039Y-10805650D01*
X13558039Y-10805650D02*
X13538991Y-10777079D01*
X13538991Y-10777079D02*
X13529468Y-10758031D01*
X13529468Y-10758031D02*
X13519944Y-10729460D01*
X13519944Y-10729460D02*
X13510420Y-10681841D01*
X13510420Y-10681841D02*
X13510420Y-10643746D01*
X13510420Y-10643746D02*
X13519944Y-10596127D01*
X13519944Y-10596127D02*
X13529468Y-10567555D01*
X13529468Y-10567555D02*
X13538991Y-10548508D01*
X13538991Y-10548508D02*
X13558039Y-10519936D01*
X13558039Y-10519936D02*
X13567563Y-10510412D01*
X13634229Y-10558031D02*
X13643753Y-10548508D01*
X13643753Y-10548508D02*
X13662801Y-10538984D01*
X13662801Y-10538984D02*
X13710420Y-10538984D01*
X13710420Y-10538984D02*
X13729468Y-10548508D01*
X13729468Y-10548508D02*
X13738991Y-10558031D01*
X13738991Y-10558031D02*
X13748515Y-10577079D01*
X13748515Y-10577079D02*
X13748515Y-10596127D01*
X13748515Y-10596127D02*
X13738991Y-10624698D01*
X13738991Y-10624698D02*
X13624706Y-10738984D01*
X13624706Y-10738984D02*
X13748515Y-10738984D01*
X13824706Y-10558031D02*
X13834229Y-10548508D01*
X13834229Y-10548508D02*
X13853277Y-10538984D01*
X13853277Y-10538984D02*
X13900896Y-10538984D01*
X13900896Y-10538984D02*
X13919944Y-10548508D01*
X13919944Y-10548508D02*
X13929468Y-10558031D01*
X13929468Y-10558031D02*
X13938991Y-10577079D01*
X13938991Y-10577079D02*
X13938991Y-10596127D01*
X13938991Y-10596127D02*
X13929468Y-10624698D01*
X13929468Y-10624698D02*
X13815182Y-10738984D01*
X13815182Y-10738984D02*
X13938991Y-10738984D01*
X14177087Y-10738984D02*
X14177087Y-10538984D01*
X14262801Y-10738984D02*
X14262801Y-10634222D01*
X14262801Y-10634222D02*
X14253277Y-10615174D01*
X14253277Y-10615174D02*
X14234230Y-10605650D01*
X14234230Y-10605650D02*
X14205658Y-10605650D01*
X14205658Y-10605650D02*
X14186610Y-10615174D01*
X14186610Y-10615174D02*
X14177087Y-10624698D01*
X14386610Y-10738984D02*
X14367563Y-10729460D01*
X14367563Y-10729460D02*
X14358039Y-10719936D01*
X14358039Y-10719936D02*
X14348515Y-10700889D01*
X14348515Y-10700889D02*
X14348515Y-10643746D01*
X14348515Y-10643746D02*
X14358039Y-10624698D01*
X14358039Y-10624698D02*
X14367563Y-10615174D01*
X14367563Y-10615174D02*
X14386610Y-10605650D01*
X14386610Y-10605650D02*
X14415182Y-10605650D01*
X14415182Y-10605650D02*
X14434230Y-10615174D01*
X14434230Y-10615174D02*
X14443753Y-10624698D01*
X14443753Y-10624698D02*
X14453277Y-10643746D01*
X14453277Y-10643746D02*
X14453277Y-10700889D01*
X14453277Y-10700889D02*
X14443753Y-10719936D01*
X14443753Y-10719936D02*
X14434230Y-10729460D01*
X14434230Y-10729460D02*
X14415182Y-10738984D01*
X14415182Y-10738984D02*
X14386610Y-10738984D01*
X14567563Y-10738984D02*
X14548515Y-10729460D01*
X14548515Y-10729460D02*
X14538991Y-10710412D01*
X14538991Y-10710412D02*
X14538991Y-10538984D01*
X14719944Y-10729460D02*
X14700896Y-10738984D01*
X14700896Y-10738984D02*
X14662801Y-10738984D01*
X14662801Y-10738984D02*
X14643753Y-10729460D01*
X14643753Y-10729460D02*
X14634230Y-10710412D01*
X14634230Y-10710412D02*
X14634230Y-10634222D01*
X14634230Y-10634222D02*
X14643753Y-10615174D01*
X14643753Y-10615174D02*
X14662801Y-10605650D01*
X14662801Y-10605650D02*
X14700896Y-10605650D01*
X14700896Y-10605650D02*
X14719944Y-10615174D01*
X14719944Y-10615174D02*
X14729468Y-10634222D01*
X14729468Y-10634222D02*
X14729468Y-10653270D01*
X14729468Y-10653270D02*
X14634230Y-10672317D01*
X14805658Y-10729460D02*
X14824706Y-10738984D01*
X14824706Y-10738984D02*
X14862801Y-10738984D01*
X14862801Y-10738984D02*
X14881849Y-10729460D01*
X14881849Y-10729460D02*
X14891372Y-10710412D01*
X14891372Y-10710412D02*
X14891372Y-10700889D01*
X14891372Y-10700889D02*
X14881849Y-10681841D01*
X14881849Y-10681841D02*
X14862801Y-10672317D01*
X14862801Y-10672317D02*
X14834230Y-10672317D01*
X14834230Y-10672317D02*
X14815182Y-10662793D01*
X14815182Y-10662793D02*
X14805658Y-10643746D01*
X14805658Y-10643746D02*
X14805658Y-10634222D01*
X14805658Y-10634222D02*
X14815182Y-10615174D01*
X14815182Y-10615174D02*
X14834230Y-10605650D01*
X14834230Y-10605650D02*
X14862801Y-10605650D01*
X14862801Y-10605650D02*
X14881849Y-10615174D01*
X14958039Y-10815174D02*
X14967563Y-10805650D01*
X14967563Y-10805650D02*
X14986611Y-10777079D01*
X14986611Y-10777079D02*
X14996134Y-10758031D01*
X14996134Y-10758031D02*
X15005658Y-10729460D01*
X15005658Y-10729460D02*
X15015182Y-10681841D01*
X15015182Y-10681841D02*
X15015182Y-10643746D01*
X15015182Y-10643746D02*
X15005658Y-10596127D01*
X15005658Y-10596127D02*
X14996134Y-10567555D01*
X14996134Y-10567555D02*
X14986611Y-10548508D01*
X14986611Y-10548508D02*
X14967563Y-10519936D01*
X14967563Y-10519936D02*
X14958039Y-10510412D01*
D12*
X9992500Y-10911500D02*
G75*
G02*
X9922500Y-10911500I-35000J0D01*
G01*
X9922500Y-10911500D02*
G75*
G02*
X9992500Y-10911500I35000J0D01*
G01*
D11*
X10291372Y-10802984D02*
X10310420Y-10802984D01*
X10310420Y-10802984D02*
X10329467Y-10812508D01*
X10329467Y-10812508D02*
X10338991Y-10822031D01*
X10338991Y-10822031D02*
X10348515Y-10841079D01*
X10348515Y-10841079D02*
X10358039Y-10879174D01*
X10358039Y-10879174D02*
X10358039Y-10926793D01*
X10358039Y-10926793D02*
X10348515Y-10964889D01*
X10348515Y-10964889D02*
X10338991Y-10983936D01*
X10338991Y-10983936D02*
X10329467Y-10993460D01*
X10329467Y-10993460D02*
X10310420Y-11002984D01*
X10310420Y-11002984D02*
X10291372Y-11002984D01*
X10291372Y-11002984D02*
X10272324Y-10993460D01*
X10272324Y-10993460D02*
X10262801Y-10983936D01*
X10262801Y-10983936D02*
X10253277Y-10964889D01*
X10253277Y-10964889D02*
X10243753Y-10926793D01*
X10243753Y-10926793D02*
X10243753Y-10879174D01*
X10243753Y-10879174D02*
X10253277Y-10841079D01*
X10253277Y-10841079D02*
X10262801Y-10822031D01*
X10262801Y-10822031D02*
X10272324Y-10812508D01*
X10272324Y-10812508D02*
X10291372Y-10802984D01*
X10443753Y-10983936D02*
X10453277Y-10993460D01*
X10453277Y-10993460D02*
X10443753Y-11002984D01*
X10443753Y-11002984D02*
X10434229Y-10993460D01*
X10434229Y-10993460D02*
X10443753Y-10983936D01*
X10443753Y-10983936D02*
X10443753Y-11002984D01*
X10519944Y-10802984D02*
X10653277Y-10802984D01*
X10653277Y-10802984D02*
X10567563Y-11002984D01*
X10767563Y-10802984D02*
X10786610Y-10802984D01*
X10786610Y-10802984D02*
X10805658Y-10812508D01*
X10805658Y-10812508D02*
X10815182Y-10822031D01*
X10815182Y-10822031D02*
X10824705Y-10841079D01*
X10824705Y-10841079D02*
X10834229Y-10879174D01*
X10834229Y-10879174D02*
X10834229Y-10926793D01*
X10834229Y-10926793D02*
X10824705Y-10964889D01*
X10824705Y-10964889D02*
X10815182Y-10983936D01*
X10815182Y-10983936D02*
X10805658Y-10993460D01*
X10805658Y-10993460D02*
X10786610Y-11002984D01*
X10786610Y-11002984D02*
X10767563Y-11002984D01*
X10767563Y-11002984D02*
X10748515Y-10993460D01*
X10748515Y-10993460D02*
X10738991Y-10983936D01*
X10738991Y-10983936D02*
X10729467Y-10964889D01*
X10729467Y-10964889D02*
X10719944Y-10926793D01*
X10719944Y-10926793D02*
X10719944Y-10879174D01*
X10719944Y-10879174D02*
X10729467Y-10841079D01*
X10729467Y-10841079D02*
X10738991Y-10822031D01*
X10738991Y-10822031D02*
X10748515Y-10812508D01*
X10748515Y-10812508D02*
X10767563Y-10802984D01*
X10958039Y-10802984D02*
X10977086Y-10802984D01*
X10977086Y-10802984D02*
X10996134Y-10812508D01*
X10996134Y-10812508D02*
X11005658Y-10822031D01*
X11005658Y-10822031D02*
X11015182Y-10841079D01*
X11015182Y-10841079D02*
X11024705Y-10879174D01*
X11024705Y-10879174D02*
X11024705Y-10926793D01*
X11024705Y-10926793D02*
X11015182Y-10964889D01*
X11015182Y-10964889D02*
X11005658Y-10983936D01*
X11005658Y-10983936D02*
X10996134Y-10993460D01*
X10996134Y-10993460D02*
X10977086Y-11002984D01*
X10977086Y-11002984D02*
X10958039Y-11002984D01*
X10958039Y-11002984D02*
X10938991Y-10993460D01*
X10938991Y-10993460D02*
X10929467Y-10983936D01*
X10929467Y-10983936D02*
X10919944Y-10964889D01*
X10919944Y-10964889D02*
X10910420Y-10926793D01*
X10910420Y-10926793D02*
X10910420Y-10879174D01*
X10910420Y-10879174D02*
X10919944Y-10841079D01*
X10919944Y-10841079D02*
X10929467Y-10822031D01*
X10929467Y-10822031D02*
X10938991Y-10812508D01*
X10938991Y-10812508D02*
X10958039Y-10802984D01*
X11110420Y-11002984D02*
X11110420Y-10869650D01*
X11110420Y-10888698D02*
X11119944Y-10879174D01*
X11119944Y-10879174D02*
X11138991Y-10869650D01*
X11138991Y-10869650D02*
X11167563Y-10869650D01*
X11167563Y-10869650D02*
X11186610Y-10879174D01*
X11186610Y-10879174D02*
X11196134Y-10898222D01*
X11196134Y-10898222D02*
X11196134Y-11002984D01*
X11196134Y-10898222D02*
X11205658Y-10879174D01*
X11205658Y-10879174D02*
X11224705Y-10869650D01*
X11224705Y-10869650D02*
X11253277Y-10869650D01*
X11253277Y-10869650D02*
X11272324Y-10879174D01*
X11272324Y-10879174D02*
X11281848Y-10898222D01*
X11281848Y-10898222D02*
X11281848Y-11002984D01*
X11377086Y-11002984D02*
X11377086Y-10869650D01*
X11377086Y-10888698D02*
X11386610Y-10879174D01*
X11386610Y-10879174D02*
X11405658Y-10869650D01*
X11405658Y-10869650D02*
X11434229Y-10869650D01*
X11434229Y-10869650D02*
X11453277Y-10879174D01*
X11453277Y-10879174D02*
X11462801Y-10898222D01*
X11462801Y-10898222D02*
X11462801Y-11002984D01*
X11462801Y-10898222D02*
X11472324Y-10879174D01*
X11472324Y-10879174D02*
X11491372Y-10869650D01*
X11491372Y-10869650D02*
X11519943Y-10869650D01*
X11519943Y-10869650D02*
X11538991Y-10879174D01*
X11538991Y-10879174D02*
X11548515Y-10898222D01*
X11548515Y-10898222D02*
X11548515Y-11002984D01*
X11938991Y-10793460D02*
X11767563Y-11050603D01*
X12196134Y-10802984D02*
X12215182Y-10802984D01*
X12215182Y-10802984D02*
X12234229Y-10812508D01*
X12234229Y-10812508D02*
X12243753Y-10822031D01*
X12243753Y-10822031D02*
X12253277Y-10841079D01*
X12253277Y-10841079D02*
X12262801Y-10879174D01*
X12262801Y-10879174D02*
X12262801Y-10926793D01*
X12262801Y-10926793D02*
X12253277Y-10964889D01*
X12253277Y-10964889D02*
X12243753Y-10983936D01*
X12243753Y-10983936D02*
X12234229Y-10993460D01*
X12234229Y-10993460D02*
X12215182Y-11002984D01*
X12215182Y-11002984D02*
X12196134Y-11002984D01*
X12196134Y-11002984D02*
X12177086Y-10993460D01*
X12177086Y-10993460D02*
X12167563Y-10983936D01*
X12167563Y-10983936D02*
X12158039Y-10964889D01*
X12158039Y-10964889D02*
X12148515Y-10926793D01*
X12148515Y-10926793D02*
X12148515Y-10879174D01*
X12148515Y-10879174D02*
X12158039Y-10841079D01*
X12158039Y-10841079D02*
X12167563Y-10822031D01*
X12167563Y-10822031D02*
X12177086Y-10812508D01*
X12177086Y-10812508D02*
X12196134Y-10802984D01*
X12348515Y-10983936D02*
X12358039Y-10993460D01*
X12358039Y-10993460D02*
X12348515Y-11002984D01*
X12348515Y-11002984D02*
X12338991Y-10993460D01*
X12338991Y-10993460D02*
X12348515Y-10983936D01*
X12348515Y-10983936D02*
X12348515Y-11002984D01*
X12481848Y-10802984D02*
X12500896Y-10802984D01*
X12500896Y-10802984D02*
X12519944Y-10812508D01*
X12519944Y-10812508D02*
X12529467Y-10822031D01*
X12529467Y-10822031D02*
X12538991Y-10841079D01*
X12538991Y-10841079D02*
X12548515Y-10879174D01*
X12548515Y-10879174D02*
X12548515Y-10926793D01*
X12548515Y-10926793D02*
X12538991Y-10964889D01*
X12538991Y-10964889D02*
X12529467Y-10983936D01*
X12529467Y-10983936D02*
X12519944Y-10993460D01*
X12519944Y-10993460D02*
X12500896Y-11002984D01*
X12500896Y-11002984D02*
X12481848Y-11002984D01*
X12481848Y-11002984D02*
X12462801Y-10993460D01*
X12462801Y-10993460D02*
X12453277Y-10983936D01*
X12453277Y-10983936D02*
X12443753Y-10964889D01*
X12443753Y-10964889D02*
X12434229Y-10926793D01*
X12434229Y-10926793D02*
X12434229Y-10879174D01*
X12434229Y-10879174D02*
X12443753Y-10841079D01*
X12443753Y-10841079D02*
X12453277Y-10822031D01*
X12453277Y-10822031D02*
X12462801Y-10812508D01*
X12462801Y-10812508D02*
X12481848Y-10802984D01*
X12624706Y-10822031D02*
X12634229Y-10812508D01*
X12634229Y-10812508D02*
X12653277Y-10802984D01*
X12653277Y-10802984D02*
X12700896Y-10802984D01*
X12700896Y-10802984D02*
X12719944Y-10812508D01*
X12719944Y-10812508D02*
X12729467Y-10822031D01*
X12729467Y-10822031D02*
X12738991Y-10841079D01*
X12738991Y-10841079D02*
X12738991Y-10860127D01*
X12738991Y-10860127D02*
X12729467Y-10888698D01*
X12729467Y-10888698D02*
X12615182Y-11002984D01*
X12615182Y-11002984D02*
X12738991Y-11002984D01*
X12805658Y-10802984D02*
X12938991Y-10802984D01*
X12938991Y-10802984D02*
X12853277Y-11002984D01*
X13100896Y-10802984D02*
X13062801Y-10802984D01*
X13062801Y-10802984D02*
X13043753Y-10812508D01*
X13043753Y-10812508D02*
X13034229Y-10822031D01*
X13034229Y-10822031D02*
X13015182Y-10850603D01*
X13015182Y-10850603D02*
X13005658Y-10888698D01*
X13005658Y-10888698D02*
X13005658Y-10964889D01*
X13005658Y-10964889D02*
X13015182Y-10983936D01*
X13015182Y-10983936D02*
X13024706Y-10993460D01*
X13024706Y-10993460D02*
X13043753Y-11002984D01*
X13043753Y-11002984D02*
X13081848Y-11002984D01*
X13081848Y-11002984D02*
X13100896Y-10993460D01*
X13100896Y-10993460D02*
X13110420Y-10983936D01*
X13110420Y-10983936D02*
X13119944Y-10964889D01*
X13119944Y-10964889D02*
X13119944Y-10917270D01*
X13119944Y-10917270D02*
X13110420Y-10898222D01*
X13110420Y-10898222D02*
X13100896Y-10888698D01*
X13100896Y-10888698D02*
X13081848Y-10879174D01*
X13081848Y-10879174D02*
X13043753Y-10879174D01*
X13043753Y-10879174D02*
X13024706Y-10888698D01*
X13024706Y-10888698D02*
X13015182Y-10898222D01*
X13015182Y-10898222D02*
X13005658Y-10917270D01*
X13196134Y-10802984D02*
X13196134Y-10841079D01*
X13272325Y-10802984D02*
X13272325Y-10841079D01*
X13567563Y-11079174D02*
X13558039Y-11069650D01*
X13558039Y-11069650D02*
X13538991Y-11041079D01*
X13538991Y-11041079D02*
X13529468Y-11022031D01*
X13529468Y-11022031D02*
X13519944Y-10993460D01*
X13519944Y-10993460D02*
X13510420Y-10945841D01*
X13510420Y-10945841D02*
X13510420Y-10907746D01*
X13510420Y-10907746D02*
X13519944Y-10860127D01*
X13519944Y-10860127D02*
X13529468Y-10831555D01*
X13529468Y-10831555D02*
X13538991Y-10812508D01*
X13538991Y-10812508D02*
X13558039Y-10783936D01*
X13558039Y-10783936D02*
X13567563Y-10774412D01*
X13729468Y-10802984D02*
X13691372Y-10802984D01*
X13691372Y-10802984D02*
X13672325Y-10812508D01*
X13672325Y-10812508D02*
X13662801Y-10822031D01*
X13662801Y-10822031D02*
X13643753Y-10850603D01*
X13643753Y-10850603D02*
X13634229Y-10888698D01*
X13634229Y-10888698D02*
X13634229Y-10964889D01*
X13634229Y-10964889D02*
X13643753Y-10983936D01*
X13643753Y-10983936D02*
X13653277Y-10993460D01*
X13653277Y-10993460D02*
X13672325Y-11002984D01*
X13672325Y-11002984D02*
X13710420Y-11002984D01*
X13710420Y-11002984D02*
X13729468Y-10993460D01*
X13729468Y-10993460D02*
X13738991Y-10983936D01*
X13738991Y-10983936D02*
X13748515Y-10964889D01*
X13748515Y-10964889D02*
X13748515Y-10917270D01*
X13748515Y-10917270D02*
X13738991Y-10898222D01*
X13738991Y-10898222D02*
X13729468Y-10888698D01*
X13729468Y-10888698D02*
X13710420Y-10879174D01*
X13710420Y-10879174D02*
X13672325Y-10879174D01*
X13672325Y-10879174D02*
X13653277Y-10888698D01*
X13653277Y-10888698D02*
X13643753Y-10898222D01*
X13643753Y-10898222D02*
X13634229Y-10917270D01*
X13986610Y-11002984D02*
X13986610Y-10802984D01*
X14072325Y-11002984D02*
X14072325Y-10898222D01*
X14072325Y-10898222D02*
X14062801Y-10879174D01*
X14062801Y-10879174D02*
X14043753Y-10869650D01*
X14043753Y-10869650D02*
X14015182Y-10869650D01*
X14015182Y-10869650D02*
X13996134Y-10879174D01*
X13996134Y-10879174D02*
X13986610Y-10888698D01*
X14196134Y-11002984D02*
X14177087Y-10993460D01*
X14177087Y-10993460D02*
X14167563Y-10983936D01*
X14167563Y-10983936D02*
X14158039Y-10964889D01*
X14158039Y-10964889D02*
X14158039Y-10907746D01*
X14158039Y-10907746D02*
X14167563Y-10888698D01*
X14167563Y-10888698D02*
X14177087Y-10879174D01*
X14177087Y-10879174D02*
X14196134Y-10869650D01*
X14196134Y-10869650D02*
X14224706Y-10869650D01*
X14224706Y-10869650D02*
X14243753Y-10879174D01*
X14243753Y-10879174D02*
X14253277Y-10888698D01*
X14253277Y-10888698D02*
X14262801Y-10907746D01*
X14262801Y-10907746D02*
X14262801Y-10964889D01*
X14262801Y-10964889D02*
X14253277Y-10983936D01*
X14253277Y-10983936D02*
X14243753Y-10993460D01*
X14243753Y-10993460D02*
X14224706Y-11002984D01*
X14224706Y-11002984D02*
X14196134Y-11002984D01*
X14377087Y-11002984D02*
X14358039Y-10993460D01*
X14358039Y-10993460D02*
X14348515Y-10974412D01*
X14348515Y-10974412D02*
X14348515Y-10802984D01*
X14529468Y-10993460D02*
X14510420Y-11002984D01*
X14510420Y-11002984D02*
X14472325Y-11002984D01*
X14472325Y-11002984D02*
X14453277Y-10993460D01*
X14453277Y-10993460D02*
X14443753Y-10974412D01*
X14443753Y-10974412D02*
X14443753Y-10898222D01*
X14443753Y-10898222D02*
X14453277Y-10879174D01*
X14453277Y-10879174D02*
X14472325Y-10869650D01*
X14472325Y-10869650D02*
X14510420Y-10869650D01*
X14510420Y-10869650D02*
X14529468Y-10879174D01*
X14529468Y-10879174D02*
X14538991Y-10898222D01*
X14538991Y-10898222D02*
X14538991Y-10917270D01*
X14538991Y-10917270D02*
X14443753Y-10936317D01*
X14615182Y-10993460D02*
X14634230Y-11002984D01*
X14634230Y-11002984D02*
X14672325Y-11002984D01*
X14672325Y-11002984D02*
X14691372Y-10993460D01*
X14691372Y-10993460D02*
X14700896Y-10974412D01*
X14700896Y-10974412D02*
X14700896Y-10964889D01*
X14700896Y-10964889D02*
X14691372Y-10945841D01*
X14691372Y-10945841D02*
X14672325Y-10936317D01*
X14672325Y-10936317D02*
X14643753Y-10936317D01*
X14643753Y-10936317D02*
X14624706Y-10926793D01*
X14624706Y-10926793D02*
X14615182Y-10907746D01*
X14615182Y-10907746D02*
X14615182Y-10898222D01*
X14615182Y-10898222D02*
X14624706Y-10879174D01*
X14624706Y-10879174D02*
X14643753Y-10869650D01*
X14643753Y-10869650D02*
X14672325Y-10869650D01*
X14672325Y-10869650D02*
X14691372Y-10879174D01*
X14767563Y-11079174D02*
X14777087Y-11069650D01*
X14777087Y-11069650D02*
X14796134Y-11041079D01*
X14796134Y-11041079D02*
X14805658Y-11022031D01*
X14805658Y-11022031D02*
X14815182Y-10993460D01*
X14815182Y-10993460D02*
X14824706Y-10945841D01*
X14824706Y-10945841D02*
X14824706Y-10907746D01*
X14824706Y-10907746D02*
X14815182Y-10860127D01*
X14815182Y-10860127D02*
X14805658Y-10831555D01*
X14805658Y-10831555D02*
X14796134Y-10812508D01*
X14796134Y-10812508D02*
X14777087Y-10783936D01*
X14777087Y-10783936D02*
X14767563Y-10774412D01*
D12*
X9952500Y-11135500D02*
X9952500Y-11215500D01*
X9912500Y-11175500D02*
X9992500Y-11175500D01*
D11*
X10291372Y-11066984D02*
X10310420Y-11066984D01*
X10310420Y-11066984D02*
X10329467Y-11076508D01*
X10329467Y-11076508D02*
X10338991Y-11086031D01*
X10338991Y-11086031D02*
X10348515Y-11105079D01*
X10348515Y-11105079D02*
X10358039Y-11143174D01*
X10358039Y-11143174D02*
X10358039Y-11190793D01*
X10358039Y-11190793D02*
X10348515Y-11228888D01*
X10348515Y-11228888D02*
X10338991Y-11247936D01*
X10338991Y-11247936D02*
X10329467Y-11257460D01*
X10329467Y-11257460D02*
X10310420Y-11266984D01*
X10310420Y-11266984D02*
X10291372Y-11266984D01*
X10291372Y-11266984D02*
X10272324Y-11257460D01*
X10272324Y-11257460D02*
X10262801Y-11247936D01*
X10262801Y-11247936D02*
X10253277Y-11228888D01*
X10253277Y-11228888D02*
X10243753Y-11190793D01*
X10243753Y-11190793D02*
X10243753Y-11143174D01*
X10243753Y-11143174D02*
X10253277Y-11105079D01*
X10253277Y-11105079D02*
X10262801Y-11086031D01*
X10262801Y-11086031D02*
X10272324Y-11076508D01*
X10272324Y-11076508D02*
X10291372Y-11066984D01*
X10443753Y-11247936D02*
X10453277Y-11257460D01*
X10453277Y-11257460D02*
X10443753Y-11266984D01*
X10443753Y-11266984D02*
X10434229Y-11257460D01*
X10434229Y-11257460D02*
X10443753Y-11247936D01*
X10443753Y-11247936D02*
X10443753Y-11266984D01*
X10567563Y-11152698D02*
X10548515Y-11143174D01*
X10548515Y-11143174D02*
X10538991Y-11133650D01*
X10538991Y-11133650D02*
X10529467Y-11114603D01*
X10529467Y-11114603D02*
X10529467Y-11105079D01*
X10529467Y-11105079D02*
X10538991Y-11086031D01*
X10538991Y-11086031D02*
X10548515Y-11076508D01*
X10548515Y-11076508D02*
X10567563Y-11066984D01*
X10567563Y-11066984D02*
X10605658Y-11066984D01*
X10605658Y-11066984D02*
X10624705Y-11076508D01*
X10624705Y-11076508D02*
X10634229Y-11086031D01*
X10634229Y-11086031D02*
X10643753Y-11105079D01*
X10643753Y-11105079D02*
X10643753Y-11114603D01*
X10643753Y-11114603D02*
X10634229Y-11133650D01*
X10634229Y-11133650D02*
X10624705Y-11143174D01*
X10624705Y-11143174D02*
X10605658Y-11152698D01*
X10605658Y-11152698D02*
X10567563Y-11152698D01*
X10567563Y-11152698D02*
X10548515Y-11162222D01*
X10548515Y-11162222D02*
X10538991Y-11171746D01*
X10538991Y-11171746D02*
X10529467Y-11190793D01*
X10529467Y-11190793D02*
X10529467Y-11228888D01*
X10529467Y-11228888D02*
X10538991Y-11247936D01*
X10538991Y-11247936D02*
X10548515Y-11257460D01*
X10548515Y-11257460D02*
X10567563Y-11266984D01*
X10567563Y-11266984D02*
X10605658Y-11266984D01*
X10605658Y-11266984D02*
X10624705Y-11257460D01*
X10624705Y-11257460D02*
X10634229Y-11247936D01*
X10634229Y-11247936D02*
X10643753Y-11228888D01*
X10643753Y-11228888D02*
X10643753Y-11190793D01*
X10643753Y-11190793D02*
X10634229Y-11171746D01*
X10634229Y-11171746D02*
X10624705Y-11162222D01*
X10624705Y-11162222D02*
X10605658Y-11152698D01*
X10767563Y-11066984D02*
X10786610Y-11066984D01*
X10786610Y-11066984D02*
X10805658Y-11076508D01*
X10805658Y-11076508D02*
X10815182Y-11086031D01*
X10815182Y-11086031D02*
X10824705Y-11105079D01*
X10824705Y-11105079D02*
X10834229Y-11143174D01*
X10834229Y-11143174D02*
X10834229Y-11190793D01*
X10834229Y-11190793D02*
X10824705Y-11228888D01*
X10824705Y-11228888D02*
X10815182Y-11247936D01*
X10815182Y-11247936D02*
X10805658Y-11257460D01*
X10805658Y-11257460D02*
X10786610Y-11266984D01*
X10786610Y-11266984D02*
X10767563Y-11266984D01*
X10767563Y-11266984D02*
X10748515Y-11257460D01*
X10748515Y-11257460D02*
X10738991Y-11247936D01*
X10738991Y-11247936D02*
X10729467Y-11228888D01*
X10729467Y-11228888D02*
X10719944Y-11190793D01*
X10719944Y-11190793D02*
X10719944Y-11143174D01*
X10719944Y-11143174D02*
X10729467Y-11105079D01*
X10729467Y-11105079D02*
X10738991Y-11086031D01*
X10738991Y-11086031D02*
X10748515Y-11076508D01*
X10748515Y-11076508D02*
X10767563Y-11066984D01*
X10958039Y-11066984D02*
X10977086Y-11066984D01*
X10977086Y-11066984D02*
X10996134Y-11076508D01*
X10996134Y-11076508D02*
X11005658Y-11086031D01*
X11005658Y-11086031D02*
X11015182Y-11105079D01*
X11015182Y-11105079D02*
X11024705Y-11143174D01*
X11024705Y-11143174D02*
X11024705Y-11190793D01*
X11024705Y-11190793D02*
X11015182Y-11228888D01*
X11015182Y-11228888D02*
X11005658Y-11247936D01*
X11005658Y-11247936D02*
X10996134Y-11257460D01*
X10996134Y-11257460D02*
X10977086Y-11266984D01*
X10977086Y-11266984D02*
X10958039Y-11266984D01*
X10958039Y-11266984D02*
X10938991Y-11257460D01*
X10938991Y-11257460D02*
X10929467Y-11247936D01*
X10929467Y-11247936D02*
X10919944Y-11228888D01*
X10919944Y-11228888D02*
X10910420Y-11190793D01*
X10910420Y-11190793D02*
X10910420Y-11143174D01*
X10910420Y-11143174D02*
X10919944Y-11105079D01*
X10919944Y-11105079D02*
X10929467Y-11086031D01*
X10929467Y-11086031D02*
X10938991Y-11076508D01*
X10938991Y-11076508D02*
X10958039Y-11066984D01*
X11110420Y-11266984D02*
X11110420Y-11133650D01*
X11110420Y-11152698D02*
X11119944Y-11143174D01*
X11119944Y-11143174D02*
X11138991Y-11133650D01*
X11138991Y-11133650D02*
X11167563Y-11133650D01*
X11167563Y-11133650D02*
X11186610Y-11143174D01*
X11186610Y-11143174D02*
X11196134Y-11162222D01*
X11196134Y-11162222D02*
X11196134Y-11266984D01*
X11196134Y-11162222D02*
X11205658Y-11143174D01*
X11205658Y-11143174D02*
X11224705Y-11133650D01*
X11224705Y-11133650D02*
X11253277Y-11133650D01*
X11253277Y-11133650D02*
X11272324Y-11143174D01*
X11272324Y-11143174D02*
X11281848Y-11162222D01*
X11281848Y-11162222D02*
X11281848Y-11266984D01*
X11377086Y-11266984D02*
X11377086Y-11133650D01*
X11377086Y-11152698D02*
X11386610Y-11143174D01*
X11386610Y-11143174D02*
X11405658Y-11133650D01*
X11405658Y-11133650D02*
X11434229Y-11133650D01*
X11434229Y-11133650D02*
X11453277Y-11143174D01*
X11453277Y-11143174D02*
X11462801Y-11162222D01*
X11462801Y-11162222D02*
X11462801Y-11266984D01*
X11462801Y-11162222D02*
X11472324Y-11143174D01*
X11472324Y-11143174D02*
X11491372Y-11133650D01*
X11491372Y-11133650D02*
X11519943Y-11133650D01*
X11519943Y-11133650D02*
X11538991Y-11143174D01*
X11538991Y-11143174D02*
X11548515Y-11162222D01*
X11548515Y-11162222D02*
X11548515Y-11266984D01*
X11938991Y-11057460D02*
X11767563Y-11314603D01*
X12196134Y-11066984D02*
X12215182Y-11066984D01*
X12215182Y-11066984D02*
X12234229Y-11076508D01*
X12234229Y-11076508D02*
X12243753Y-11086031D01*
X12243753Y-11086031D02*
X12253277Y-11105079D01*
X12253277Y-11105079D02*
X12262801Y-11143174D01*
X12262801Y-11143174D02*
X12262801Y-11190793D01*
X12262801Y-11190793D02*
X12253277Y-11228888D01*
X12253277Y-11228888D02*
X12243753Y-11247936D01*
X12243753Y-11247936D02*
X12234229Y-11257460D01*
X12234229Y-11257460D02*
X12215182Y-11266984D01*
X12215182Y-11266984D02*
X12196134Y-11266984D01*
X12196134Y-11266984D02*
X12177086Y-11257460D01*
X12177086Y-11257460D02*
X12167563Y-11247936D01*
X12167563Y-11247936D02*
X12158039Y-11228888D01*
X12158039Y-11228888D02*
X12148515Y-11190793D01*
X12148515Y-11190793D02*
X12148515Y-11143174D01*
X12148515Y-11143174D02*
X12158039Y-11105079D01*
X12158039Y-11105079D02*
X12167563Y-11086031D01*
X12167563Y-11086031D02*
X12177086Y-11076508D01*
X12177086Y-11076508D02*
X12196134Y-11066984D01*
X12348515Y-11247936D02*
X12358039Y-11257460D01*
X12358039Y-11257460D02*
X12348515Y-11266984D01*
X12348515Y-11266984D02*
X12338991Y-11257460D01*
X12338991Y-11257460D02*
X12348515Y-11247936D01*
X12348515Y-11247936D02*
X12348515Y-11266984D01*
X12481848Y-11066984D02*
X12500896Y-11066984D01*
X12500896Y-11066984D02*
X12519944Y-11076508D01*
X12519944Y-11076508D02*
X12529467Y-11086031D01*
X12529467Y-11086031D02*
X12538991Y-11105079D01*
X12538991Y-11105079D02*
X12548515Y-11143174D01*
X12548515Y-11143174D02*
X12548515Y-11190793D01*
X12548515Y-11190793D02*
X12538991Y-11228888D01*
X12538991Y-11228888D02*
X12529467Y-11247936D01*
X12529467Y-11247936D02*
X12519944Y-11257460D01*
X12519944Y-11257460D02*
X12500896Y-11266984D01*
X12500896Y-11266984D02*
X12481848Y-11266984D01*
X12481848Y-11266984D02*
X12462801Y-11257460D01*
X12462801Y-11257460D02*
X12453277Y-11247936D01*
X12453277Y-11247936D02*
X12443753Y-11228888D01*
X12443753Y-11228888D02*
X12434229Y-11190793D01*
X12434229Y-11190793D02*
X12434229Y-11143174D01*
X12434229Y-11143174D02*
X12443753Y-11105079D01*
X12443753Y-11105079D02*
X12453277Y-11086031D01*
X12453277Y-11086031D02*
X12462801Y-11076508D01*
X12462801Y-11076508D02*
X12481848Y-11066984D01*
X12615182Y-11066984D02*
X12738991Y-11066984D01*
X12738991Y-11066984D02*
X12672325Y-11143174D01*
X12672325Y-11143174D02*
X12700896Y-11143174D01*
X12700896Y-11143174D02*
X12719944Y-11152698D01*
X12719944Y-11152698D02*
X12729467Y-11162222D01*
X12729467Y-11162222D02*
X12738991Y-11181270D01*
X12738991Y-11181270D02*
X12738991Y-11228888D01*
X12738991Y-11228888D02*
X12729467Y-11247936D01*
X12729467Y-11247936D02*
X12719944Y-11257460D01*
X12719944Y-11257460D02*
X12700896Y-11266984D01*
X12700896Y-11266984D02*
X12643753Y-11266984D01*
X12643753Y-11266984D02*
X12624706Y-11257460D01*
X12624706Y-11257460D02*
X12615182Y-11247936D01*
X12929467Y-11266984D02*
X12815182Y-11266984D01*
X12872325Y-11266984D02*
X12872325Y-11066984D01*
X12872325Y-11066984D02*
X12853277Y-11095555D01*
X12853277Y-11095555D02*
X12834229Y-11114603D01*
X12834229Y-11114603D02*
X12815182Y-11124127D01*
X13110420Y-11066984D02*
X13015182Y-11066984D01*
X13015182Y-11066984D02*
X13005658Y-11162222D01*
X13005658Y-11162222D02*
X13015182Y-11152698D01*
X13015182Y-11152698D02*
X13034229Y-11143174D01*
X13034229Y-11143174D02*
X13081848Y-11143174D01*
X13081848Y-11143174D02*
X13100896Y-11152698D01*
X13100896Y-11152698D02*
X13110420Y-11162222D01*
X13110420Y-11162222D02*
X13119944Y-11181270D01*
X13119944Y-11181270D02*
X13119944Y-11228888D01*
X13119944Y-11228888D02*
X13110420Y-11247936D01*
X13110420Y-11247936D02*
X13100896Y-11257460D01*
X13100896Y-11257460D02*
X13081848Y-11266984D01*
X13081848Y-11266984D02*
X13034229Y-11266984D01*
X13034229Y-11266984D02*
X13015182Y-11257460D01*
X13015182Y-11257460D02*
X13005658Y-11247936D01*
X13196134Y-11066984D02*
X13196134Y-11105079D01*
X13272325Y-11066984D02*
X13272325Y-11105079D01*
X13567563Y-11343174D02*
X13558039Y-11333650D01*
X13558039Y-11333650D02*
X13538991Y-11305079D01*
X13538991Y-11305079D02*
X13529468Y-11286031D01*
X13529468Y-11286031D02*
X13519944Y-11257460D01*
X13519944Y-11257460D02*
X13510420Y-11209841D01*
X13510420Y-11209841D02*
X13510420Y-11171746D01*
X13510420Y-11171746D02*
X13519944Y-11124127D01*
X13519944Y-11124127D02*
X13529468Y-11095555D01*
X13529468Y-11095555D02*
X13538991Y-11076508D01*
X13538991Y-11076508D02*
X13558039Y-11047936D01*
X13558039Y-11047936D02*
X13567563Y-11038412D01*
X13729468Y-11133650D02*
X13729468Y-11266984D01*
X13681848Y-11057460D02*
X13634229Y-11200317D01*
X13634229Y-11200317D02*
X13758039Y-11200317D01*
X13815182Y-11066984D02*
X13938991Y-11066984D01*
X13938991Y-11066984D02*
X13872325Y-11143174D01*
X13872325Y-11143174D02*
X13900896Y-11143174D01*
X13900896Y-11143174D02*
X13919944Y-11152698D01*
X13919944Y-11152698D02*
X13929468Y-11162222D01*
X13929468Y-11162222D02*
X13938991Y-11181270D01*
X13938991Y-11181270D02*
X13938991Y-11228888D01*
X13938991Y-11228888D02*
X13929468Y-11247936D01*
X13929468Y-11247936D02*
X13919944Y-11257460D01*
X13919944Y-11257460D02*
X13900896Y-11266984D01*
X13900896Y-11266984D02*
X13843753Y-11266984D01*
X13843753Y-11266984D02*
X13824706Y-11257460D01*
X13824706Y-11257460D02*
X13815182Y-11247936D01*
X14177087Y-11266984D02*
X14177087Y-11066984D01*
X14262801Y-11266984D02*
X14262801Y-11162222D01*
X14262801Y-11162222D02*
X14253277Y-11143174D01*
X14253277Y-11143174D02*
X14234230Y-11133650D01*
X14234230Y-11133650D02*
X14205658Y-11133650D01*
X14205658Y-11133650D02*
X14186610Y-11143174D01*
X14186610Y-11143174D02*
X14177087Y-11152698D01*
X14386610Y-11266984D02*
X14367563Y-11257460D01*
X14367563Y-11257460D02*
X14358039Y-11247936D01*
X14358039Y-11247936D02*
X14348515Y-11228888D01*
X14348515Y-11228888D02*
X14348515Y-11171746D01*
X14348515Y-11171746D02*
X14358039Y-11152698D01*
X14358039Y-11152698D02*
X14367563Y-11143174D01*
X14367563Y-11143174D02*
X14386610Y-11133650D01*
X14386610Y-11133650D02*
X14415182Y-11133650D01*
X14415182Y-11133650D02*
X14434230Y-11143174D01*
X14434230Y-11143174D02*
X14443753Y-11152698D01*
X14443753Y-11152698D02*
X14453277Y-11171746D01*
X14453277Y-11171746D02*
X14453277Y-11228888D01*
X14453277Y-11228888D02*
X14443753Y-11247936D01*
X14443753Y-11247936D02*
X14434230Y-11257460D01*
X14434230Y-11257460D02*
X14415182Y-11266984D01*
X14415182Y-11266984D02*
X14386610Y-11266984D01*
X14567563Y-11266984D02*
X14548515Y-11257460D01*
X14548515Y-11257460D02*
X14538991Y-11238412D01*
X14538991Y-11238412D02*
X14538991Y-11066984D01*
X14719944Y-11257460D02*
X14700896Y-11266984D01*
X14700896Y-11266984D02*
X14662801Y-11266984D01*
X14662801Y-11266984D02*
X14643753Y-11257460D01*
X14643753Y-11257460D02*
X14634230Y-11238412D01*
X14634230Y-11238412D02*
X14634230Y-11162222D01*
X14634230Y-11162222D02*
X14643753Y-11143174D01*
X14643753Y-11143174D02*
X14662801Y-11133650D01*
X14662801Y-11133650D02*
X14700896Y-11133650D01*
X14700896Y-11133650D02*
X14719944Y-11143174D01*
X14719944Y-11143174D02*
X14729468Y-11162222D01*
X14729468Y-11162222D02*
X14729468Y-11181270D01*
X14729468Y-11181270D02*
X14634230Y-11200317D01*
X14805658Y-11257460D02*
X14824706Y-11266984D01*
X14824706Y-11266984D02*
X14862801Y-11266984D01*
X14862801Y-11266984D02*
X14881849Y-11257460D01*
X14881849Y-11257460D02*
X14891372Y-11238412D01*
X14891372Y-11238412D02*
X14891372Y-11228888D01*
X14891372Y-11228888D02*
X14881849Y-11209841D01*
X14881849Y-11209841D02*
X14862801Y-11200317D01*
X14862801Y-11200317D02*
X14834230Y-11200317D01*
X14834230Y-11200317D02*
X14815182Y-11190793D01*
X14815182Y-11190793D02*
X14805658Y-11171746D01*
X14805658Y-11171746D02*
X14805658Y-11162222D01*
X14805658Y-11162222D02*
X14815182Y-11143174D01*
X14815182Y-11143174D02*
X14834230Y-11133650D01*
X14834230Y-11133650D02*
X14862801Y-11133650D01*
X14862801Y-11133650D02*
X14881849Y-11143174D01*
X14958039Y-11343174D02*
X14967563Y-11333650D01*
X14967563Y-11333650D02*
X14986611Y-11305079D01*
X14986611Y-11305079D02*
X14996134Y-11286031D01*
X14996134Y-11286031D02*
X15005658Y-11257460D01*
X15005658Y-11257460D02*
X15015182Y-11209841D01*
X15015182Y-11209841D02*
X15015182Y-11171746D01*
X15015182Y-11171746D02*
X15005658Y-11124127D01*
X15005658Y-11124127D02*
X14996134Y-11095555D01*
X14996134Y-11095555D02*
X14986611Y-11076508D01*
X14986611Y-11076508D02*
X14967563Y-11047936D01*
X14967563Y-11047936D02*
X14958039Y-11038412D01*
D12*
X9979320Y-11471320D02*
X9979320Y-11407680D01*
X9915680Y-11407680D01*
X9915680Y-11471320D01*
X9979320Y-11471320D01*
D11*
X10291372Y-11330984D02*
X10310420Y-11330984D01*
X10310420Y-11330984D02*
X10329467Y-11340508D01*
X10329467Y-11340508D02*
X10338991Y-11350031D01*
X10338991Y-11350031D02*
X10348515Y-11369079D01*
X10348515Y-11369079D02*
X10358039Y-11407174D01*
X10358039Y-11407174D02*
X10358039Y-11454793D01*
X10358039Y-11454793D02*
X10348515Y-11492888D01*
X10348515Y-11492888D02*
X10338991Y-11511936D01*
X10338991Y-11511936D02*
X10329467Y-11521460D01*
X10329467Y-11521460D02*
X10310420Y-11530984D01*
X10310420Y-11530984D02*
X10291372Y-11530984D01*
X10291372Y-11530984D02*
X10272324Y-11521460D01*
X10272324Y-11521460D02*
X10262801Y-11511936D01*
X10262801Y-11511936D02*
X10253277Y-11492888D01*
X10253277Y-11492888D02*
X10243753Y-11454793D01*
X10243753Y-11454793D02*
X10243753Y-11407174D01*
X10243753Y-11407174D02*
X10253277Y-11369079D01*
X10253277Y-11369079D02*
X10262801Y-11350031D01*
X10262801Y-11350031D02*
X10272324Y-11340508D01*
X10272324Y-11340508D02*
X10291372Y-11330984D01*
X10443753Y-11511936D02*
X10453277Y-11521460D01*
X10453277Y-11521460D02*
X10443753Y-11530984D01*
X10443753Y-11530984D02*
X10434229Y-11521460D01*
X10434229Y-11521460D02*
X10443753Y-11511936D01*
X10443753Y-11511936D02*
X10443753Y-11530984D01*
X10548515Y-11530984D02*
X10586610Y-11530984D01*
X10586610Y-11530984D02*
X10605658Y-11521460D01*
X10605658Y-11521460D02*
X10615182Y-11511936D01*
X10615182Y-11511936D02*
X10634229Y-11483365D01*
X10634229Y-11483365D02*
X10643753Y-11445269D01*
X10643753Y-11445269D02*
X10643753Y-11369079D01*
X10643753Y-11369079D02*
X10634229Y-11350031D01*
X10634229Y-11350031D02*
X10624705Y-11340508D01*
X10624705Y-11340508D02*
X10605658Y-11330984D01*
X10605658Y-11330984D02*
X10567563Y-11330984D01*
X10567563Y-11330984D02*
X10548515Y-11340508D01*
X10548515Y-11340508D02*
X10538991Y-11350031D01*
X10538991Y-11350031D02*
X10529467Y-11369079D01*
X10529467Y-11369079D02*
X10529467Y-11416698D01*
X10529467Y-11416698D02*
X10538991Y-11435746D01*
X10538991Y-11435746D02*
X10548515Y-11445269D01*
X10548515Y-11445269D02*
X10567563Y-11454793D01*
X10567563Y-11454793D02*
X10605658Y-11454793D01*
X10605658Y-11454793D02*
X10624705Y-11445269D01*
X10624705Y-11445269D02*
X10634229Y-11435746D01*
X10634229Y-11435746D02*
X10643753Y-11416698D01*
X10767563Y-11330984D02*
X10786610Y-11330984D01*
X10786610Y-11330984D02*
X10805658Y-11340508D01*
X10805658Y-11340508D02*
X10815182Y-11350031D01*
X10815182Y-11350031D02*
X10824705Y-11369079D01*
X10824705Y-11369079D02*
X10834229Y-11407174D01*
X10834229Y-11407174D02*
X10834229Y-11454793D01*
X10834229Y-11454793D02*
X10824705Y-11492888D01*
X10824705Y-11492888D02*
X10815182Y-11511936D01*
X10815182Y-11511936D02*
X10805658Y-11521460D01*
X10805658Y-11521460D02*
X10786610Y-11530984D01*
X10786610Y-11530984D02*
X10767563Y-11530984D01*
X10767563Y-11530984D02*
X10748515Y-11521460D01*
X10748515Y-11521460D02*
X10738991Y-11511936D01*
X10738991Y-11511936D02*
X10729467Y-11492888D01*
X10729467Y-11492888D02*
X10719944Y-11454793D01*
X10719944Y-11454793D02*
X10719944Y-11407174D01*
X10719944Y-11407174D02*
X10729467Y-11369079D01*
X10729467Y-11369079D02*
X10738991Y-11350031D01*
X10738991Y-11350031D02*
X10748515Y-11340508D01*
X10748515Y-11340508D02*
X10767563Y-11330984D01*
X10958039Y-11330984D02*
X10977086Y-11330984D01*
X10977086Y-11330984D02*
X10996134Y-11340508D01*
X10996134Y-11340508D02*
X11005658Y-11350031D01*
X11005658Y-11350031D02*
X11015182Y-11369079D01*
X11015182Y-11369079D02*
X11024705Y-11407174D01*
X11024705Y-11407174D02*
X11024705Y-11454793D01*
X11024705Y-11454793D02*
X11015182Y-11492888D01*
X11015182Y-11492888D02*
X11005658Y-11511936D01*
X11005658Y-11511936D02*
X10996134Y-11521460D01*
X10996134Y-11521460D02*
X10977086Y-11530984D01*
X10977086Y-11530984D02*
X10958039Y-11530984D01*
X10958039Y-11530984D02*
X10938991Y-11521460D01*
X10938991Y-11521460D02*
X10929467Y-11511936D01*
X10929467Y-11511936D02*
X10919944Y-11492888D01*
X10919944Y-11492888D02*
X10910420Y-11454793D01*
X10910420Y-11454793D02*
X10910420Y-11407174D01*
X10910420Y-11407174D02*
X10919944Y-11369079D01*
X10919944Y-11369079D02*
X10929467Y-11350031D01*
X10929467Y-11350031D02*
X10938991Y-11340508D01*
X10938991Y-11340508D02*
X10958039Y-11330984D01*
X11110420Y-11530984D02*
X11110420Y-11397650D01*
X11110420Y-11416698D02*
X11119944Y-11407174D01*
X11119944Y-11407174D02*
X11138991Y-11397650D01*
X11138991Y-11397650D02*
X11167563Y-11397650D01*
X11167563Y-11397650D02*
X11186610Y-11407174D01*
X11186610Y-11407174D02*
X11196134Y-11426222D01*
X11196134Y-11426222D02*
X11196134Y-11530984D01*
X11196134Y-11426222D02*
X11205658Y-11407174D01*
X11205658Y-11407174D02*
X11224705Y-11397650D01*
X11224705Y-11397650D02*
X11253277Y-11397650D01*
X11253277Y-11397650D02*
X11272324Y-11407174D01*
X11272324Y-11407174D02*
X11281848Y-11426222D01*
X11281848Y-11426222D02*
X11281848Y-11530984D01*
X11377086Y-11530984D02*
X11377086Y-11397650D01*
X11377086Y-11416698D02*
X11386610Y-11407174D01*
X11386610Y-11407174D02*
X11405658Y-11397650D01*
X11405658Y-11397650D02*
X11434229Y-11397650D01*
X11434229Y-11397650D02*
X11453277Y-11407174D01*
X11453277Y-11407174D02*
X11462801Y-11426222D01*
X11462801Y-11426222D02*
X11462801Y-11530984D01*
X11462801Y-11426222D02*
X11472324Y-11407174D01*
X11472324Y-11407174D02*
X11491372Y-11397650D01*
X11491372Y-11397650D02*
X11519943Y-11397650D01*
X11519943Y-11397650D02*
X11538991Y-11407174D01*
X11538991Y-11407174D02*
X11548515Y-11426222D01*
X11548515Y-11426222D02*
X11548515Y-11530984D01*
X11938991Y-11321460D02*
X11767563Y-11578603D01*
X12196134Y-11330984D02*
X12215182Y-11330984D01*
X12215182Y-11330984D02*
X12234229Y-11340508D01*
X12234229Y-11340508D02*
X12243753Y-11350031D01*
X12243753Y-11350031D02*
X12253277Y-11369079D01*
X12253277Y-11369079D02*
X12262801Y-11407174D01*
X12262801Y-11407174D02*
X12262801Y-11454793D01*
X12262801Y-11454793D02*
X12253277Y-11492888D01*
X12253277Y-11492888D02*
X12243753Y-11511936D01*
X12243753Y-11511936D02*
X12234229Y-11521460D01*
X12234229Y-11521460D02*
X12215182Y-11530984D01*
X12215182Y-11530984D02*
X12196134Y-11530984D01*
X12196134Y-11530984D02*
X12177086Y-11521460D01*
X12177086Y-11521460D02*
X12167563Y-11511936D01*
X12167563Y-11511936D02*
X12158039Y-11492888D01*
X12158039Y-11492888D02*
X12148515Y-11454793D01*
X12148515Y-11454793D02*
X12148515Y-11407174D01*
X12148515Y-11407174D02*
X12158039Y-11369079D01*
X12158039Y-11369079D02*
X12167563Y-11350031D01*
X12167563Y-11350031D02*
X12177086Y-11340508D01*
X12177086Y-11340508D02*
X12196134Y-11330984D01*
X12348515Y-11511936D02*
X12358039Y-11521460D01*
X12358039Y-11521460D02*
X12348515Y-11530984D01*
X12348515Y-11530984D02*
X12338991Y-11521460D01*
X12338991Y-11521460D02*
X12348515Y-11511936D01*
X12348515Y-11511936D02*
X12348515Y-11530984D01*
X12481848Y-11330984D02*
X12500896Y-11330984D01*
X12500896Y-11330984D02*
X12519944Y-11340508D01*
X12519944Y-11340508D02*
X12529467Y-11350031D01*
X12529467Y-11350031D02*
X12538991Y-11369079D01*
X12538991Y-11369079D02*
X12548515Y-11407174D01*
X12548515Y-11407174D02*
X12548515Y-11454793D01*
X12548515Y-11454793D02*
X12538991Y-11492888D01*
X12538991Y-11492888D02*
X12529467Y-11511936D01*
X12529467Y-11511936D02*
X12519944Y-11521460D01*
X12519944Y-11521460D02*
X12500896Y-11530984D01*
X12500896Y-11530984D02*
X12481848Y-11530984D01*
X12481848Y-11530984D02*
X12462801Y-11521460D01*
X12462801Y-11521460D02*
X12453277Y-11511936D01*
X12453277Y-11511936D02*
X12443753Y-11492888D01*
X12443753Y-11492888D02*
X12434229Y-11454793D01*
X12434229Y-11454793D02*
X12434229Y-11407174D01*
X12434229Y-11407174D02*
X12443753Y-11369079D01*
X12443753Y-11369079D02*
X12453277Y-11350031D01*
X12453277Y-11350031D02*
X12462801Y-11340508D01*
X12462801Y-11340508D02*
X12481848Y-11330984D01*
X12615182Y-11330984D02*
X12738991Y-11330984D01*
X12738991Y-11330984D02*
X12672325Y-11407174D01*
X12672325Y-11407174D02*
X12700896Y-11407174D01*
X12700896Y-11407174D02*
X12719944Y-11416698D01*
X12719944Y-11416698D02*
X12729467Y-11426222D01*
X12729467Y-11426222D02*
X12738991Y-11445269D01*
X12738991Y-11445269D02*
X12738991Y-11492888D01*
X12738991Y-11492888D02*
X12729467Y-11511936D01*
X12729467Y-11511936D02*
X12719944Y-11521460D01*
X12719944Y-11521460D02*
X12700896Y-11530984D01*
X12700896Y-11530984D02*
X12643753Y-11530984D01*
X12643753Y-11530984D02*
X12624706Y-11521460D01*
X12624706Y-11521460D02*
X12615182Y-11511936D01*
X12919944Y-11330984D02*
X12824706Y-11330984D01*
X12824706Y-11330984D02*
X12815182Y-11426222D01*
X12815182Y-11426222D02*
X12824706Y-11416698D01*
X12824706Y-11416698D02*
X12843753Y-11407174D01*
X12843753Y-11407174D02*
X12891372Y-11407174D01*
X12891372Y-11407174D02*
X12910420Y-11416698D01*
X12910420Y-11416698D02*
X12919944Y-11426222D01*
X12919944Y-11426222D02*
X12929467Y-11445269D01*
X12929467Y-11445269D02*
X12929467Y-11492888D01*
X12929467Y-11492888D02*
X12919944Y-11511936D01*
X12919944Y-11511936D02*
X12910420Y-11521460D01*
X12910420Y-11521460D02*
X12891372Y-11530984D01*
X12891372Y-11530984D02*
X12843753Y-11530984D01*
X12843753Y-11530984D02*
X12824706Y-11521460D01*
X12824706Y-11521460D02*
X12815182Y-11511936D01*
X13100896Y-11397650D02*
X13100896Y-11530984D01*
X13053277Y-11321460D02*
X13005658Y-11464317D01*
X13005658Y-11464317D02*
X13129467Y-11464317D01*
X13196134Y-11330984D02*
X13196134Y-11369079D01*
X13272325Y-11330984D02*
X13272325Y-11369079D01*
X13567563Y-11607174D02*
X13558039Y-11597650D01*
X13558039Y-11597650D02*
X13538991Y-11569079D01*
X13538991Y-11569079D02*
X13529468Y-11550031D01*
X13529468Y-11550031D02*
X13519944Y-11521460D01*
X13519944Y-11521460D02*
X13510420Y-11473841D01*
X13510420Y-11473841D02*
X13510420Y-11435746D01*
X13510420Y-11435746D02*
X13519944Y-11388127D01*
X13519944Y-11388127D02*
X13529468Y-11359555D01*
X13529468Y-11359555D02*
X13538991Y-11340508D01*
X13538991Y-11340508D02*
X13558039Y-11311936D01*
X13558039Y-11311936D02*
X13567563Y-11302412D01*
X13729468Y-11397650D02*
X13729468Y-11530984D01*
X13681848Y-11321460D02*
X13634229Y-11464317D01*
X13634229Y-11464317D02*
X13758039Y-11464317D01*
X13986610Y-11530984D02*
X13986610Y-11330984D01*
X14072325Y-11530984D02*
X14072325Y-11426222D01*
X14072325Y-11426222D02*
X14062801Y-11407174D01*
X14062801Y-11407174D02*
X14043753Y-11397650D01*
X14043753Y-11397650D02*
X14015182Y-11397650D01*
X14015182Y-11397650D02*
X13996134Y-11407174D01*
X13996134Y-11407174D02*
X13986610Y-11416698D01*
X14196134Y-11530984D02*
X14177087Y-11521460D01*
X14177087Y-11521460D02*
X14167563Y-11511936D01*
X14167563Y-11511936D02*
X14158039Y-11492888D01*
X14158039Y-11492888D02*
X14158039Y-11435746D01*
X14158039Y-11435746D02*
X14167563Y-11416698D01*
X14167563Y-11416698D02*
X14177087Y-11407174D01*
X14177087Y-11407174D02*
X14196134Y-11397650D01*
X14196134Y-11397650D02*
X14224706Y-11397650D01*
X14224706Y-11397650D02*
X14243753Y-11407174D01*
X14243753Y-11407174D02*
X14253277Y-11416698D01*
X14253277Y-11416698D02*
X14262801Y-11435746D01*
X14262801Y-11435746D02*
X14262801Y-11492888D01*
X14262801Y-11492888D02*
X14253277Y-11511936D01*
X14253277Y-11511936D02*
X14243753Y-11521460D01*
X14243753Y-11521460D02*
X14224706Y-11530984D01*
X14224706Y-11530984D02*
X14196134Y-11530984D01*
X14377087Y-11530984D02*
X14358039Y-11521460D01*
X14358039Y-11521460D02*
X14348515Y-11502412D01*
X14348515Y-11502412D02*
X14348515Y-11330984D01*
X14529468Y-11521460D02*
X14510420Y-11530984D01*
X14510420Y-11530984D02*
X14472325Y-11530984D01*
X14472325Y-11530984D02*
X14453277Y-11521460D01*
X14453277Y-11521460D02*
X14443753Y-11502412D01*
X14443753Y-11502412D02*
X14443753Y-11426222D01*
X14443753Y-11426222D02*
X14453277Y-11407174D01*
X14453277Y-11407174D02*
X14472325Y-11397650D01*
X14472325Y-11397650D02*
X14510420Y-11397650D01*
X14510420Y-11397650D02*
X14529468Y-11407174D01*
X14529468Y-11407174D02*
X14538991Y-11426222D01*
X14538991Y-11426222D02*
X14538991Y-11445269D01*
X14538991Y-11445269D02*
X14443753Y-11464317D01*
X14615182Y-11521460D02*
X14634230Y-11530984D01*
X14634230Y-11530984D02*
X14672325Y-11530984D01*
X14672325Y-11530984D02*
X14691372Y-11521460D01*
X14691372Y-11521460D02*
X14700896Y-11502412D01*
X14700896Y-11502412D02*
X14700896Y-11492888D01*
X14700896Y-11492888D02*
X14691372Y-11473841D01*
X14691372Y-11473841D02*
X14672325Y-11464317D01*
X14672325Y-11464317D02*
X14643753Y-11464317D01*
X14643753Y-11464317D02*
X14624706Y-11454793D01*
X14624706Y-11454793D02*
X14615182Y-11435746D01*
X14615182Y-11435746D02*
X14615182Y-11426222D01*
X14615182Y-11426222D02*
X14624706Y-11407174D01*
X14624706Y-11407174D02*
X14643753Y-11397650D01*
X14643753Y-11397650D02*
X14672325Y-11397650D01*
X14672325Y-11397650D02*
X14691372Y-11407174D01*
X14767563Y-11607174D02*
X14777087Y-11597650D01*
X14777087Y-11597650D02*
X14796134Y-11569079D01*
X14796134Y-11569079D02*
X14805658Y-11550031D01*
X14805658Y-11550031D02*
X14815182Y-11521460D01*
X14815182Y-11521460D02*
X14824706Y-11473841D01*
X14824706Y-11473841D02*
X14824706Y-11435746D01*
X14824706Y-11435746D02*
X14815182Y-11388127D01*
X14815182Y-11388127D02*
X14805658Y-11359555D01*
X14805658Y-11359555D02*
X14796134Y-11340508D01*
X14796134Y-11340508D02*
X14777087Y-11311936D01*
X14777087Y-11311936D02*
X14767563Y-11302412D01*
D12*
X9942500Y-11753500D02*
X9992500Y-11703500D01*
X9942500Y-11653500D01*
X9892500Y-11703500D01*
X9942500Y-11753500D01*
D11*
X10358039Y-11794984D02*
X10243753Y-11794984D01*
X10300896Y-11794984D02*
X10300896Y-11594984D01*
X10300896Y-11594984D02*
X10281848Y-11623555D01*
X10281848Y-11623555D02*
X10262801Y-11642603D01*
X10262801Y-11642603D02*
X10243753Y-11652127D01*
X10443753Y-11775936D02*
X10453277Y-11785460D01*
X10453277Y-11785460D02*
X10443753Y-11794984D01*
X10443753Y-11794984D02*
X10434229Y-11785460D01*
X10434229Y-11785460D02*
X10443753Y-11775936D01*
X10443753Y-11775936D02*
X10443753Y-11794984D01*
X10577086Y-11594984D02*
X10596134Y-11594984D01*
X10596134Y-11594984D02*
X10615182Y-11604508D01*
X10615182Y-11604508D02*
X10624705Y-11614031D01*
X10624705Y-11614031D02*
X10634229Y-11633079D01*
X10634229Y-11633079D02*
X10643753Y-11671174D01*
X10643753Y-11671174D02*
X10643753Y-11718793D01*
X10643753Y-11718793D02*
X10634229Y-11756888D01*
X10634229Y-11756888D02*
X10624705Y-11775936D01*
X10624705Y-11775936D02*
X10615182Y-11785460D01*
X10615182Y-11785460D02*
X10596134Y-11794984D01*
X10596134Y-11794984D02*
X10577086Y-11794984D01*
X10577086Y-11794984D02*
X10558039Y-11785460D01*
X10558039Y-11785460D02*
X10548515Y-11775936D01*
X10548515Y-11775936D02*
X10538991Y-11756888D01*
X10538991Y-11756888D02*
X10529467Y-11718793D01*
X10529467Y-11718793D02*
X10529467Y-11671174D01*
X10529467Y-11671174D02*
X10538991Y-11633079D01*
X10538991Y-11633079D02*
X10548515Y-11614031D01*
X10548515Y-11614031D02*
X10558039Y-11604508D01*
X10558039Y-11604508D02*
X10577086Y-11594984D01*
X10767563Y-11594984D02*
X10786610Y-11594984D01*
X10786610Y-11594984D02*
X10805658Y-11604508D01*
X10805658Y-11604508D02*
X10815182Y-11614031D01*
X10815182Y-11614031D02*
X10824705Y-11633079D01*
X10824705Y-11633079D02*
X10834229Y-11671174D01*
X10834229Y-11671174D02*
X10834229Y-11718793D01*
X10834229Y-11718793D02*
X10824705Y-11756888D01*
X10824705Y-11756888D02*
X10815182Y-11775936D01*
X10815182Y-11775936D02*
X10805658Y-11785460D01*
X10805658Y-11785460D02*
X10786610Y-11794984D01*
X10786610Y-11794984D02*
X10767563Y-11794984D01*
X10767563Y-11794984D02*
X10748515Y-11785460D01*
X10748515Y-11785460D02*
X10738991Y-11775936D01*
X10738991Y-11775936D02*
X10729467Y-11756888D01*
X10729467Y-11756888D02*
X10719944Y-11718793D01*
X10719944Y-11718793D02*
X10719944Y-11671174D01*
X10719944Y-11671174D02*
X10729467Y-11633079D01*
X10729467Y-11633079D02*
X10738991Y-11614031D01*
X10738991Y-11614031D02*
X10748515Y-11604508D01*
X10748515Y-11604508D02*
X10767563Y-11594984D01*
X10958039Y-11594984D02*
X10977086Y-11594984D01*
X10977086Y-11594984D02*
X10996134Y-11604508D01*
X10996134Y-11604508D02*
X11005658Y-11614031D01*
X11005658Y-11614031D02*
X11015182Y-11633079D01*
X11015182Y-11633079D02*
X11024705Y-11671174D01*
X11024705Y-11671174D02*
X11024705Y-11718793D01*
X11024705Y-11718793D02*
X11015182Y-11756888D01*
X11015182Y-11756888D02*
X11005658Y-11775936D01*
X11005658Y-11775936D02*
X10996134Y-11785460D01*
X10996134Y-11785460D02*
X10977086Y-11794984D01*
X10977086Y-11794984D02*
X10958039Y-11794984D01*
X10958039Y-11794984D02*
X10938991Y-11785460D01*
X10938991Y-11785460D02*
X10929467Y-11775936D01*
X10929467Y-11775936D02*
X10919944Y-11756888D01*
X10919944Y-11756888D02*
X10910420Y-11718793D01*
X10910420Y-11718793D02*
X10910420Y-11671174D01*
X10910420Y-11671174D02*
X10919944Y-11633079D01*
X10919944Y-11633079D02*
X10929467Y-11614031D01*
X10929467Y-11614031D02*
X10938991Y-11604508D01*
X10938991Y-11604508D02*
X10958039Y-11594984D01*
X11110420Y-11794984D02*
X11110420Y-11661650D01*
X11110420Y-11680698D02*
X11119944Y-11671174D01*
X11119944Y-11671174D02*
X11138991Y-11661650D01*
X11138991Y-11661650D02*
X11167563Y-11661650D01*
X11167563Y-11661650D02*
X11186610Y-11671174D01*
X11186610Y-11671174D02*
X11196134Y-11690222D01*
X11196134Y-11690222D02*
X11196134Y-11794984D01*
X11196134Y-11690222D02*
X11205658Y-11671174D01*
X11205658Y-11671174D02*
X11224705Y-11661650D01*
X11224705Y-11661650D02*
X11253277Y-11661650D01*
X11253277Y-11661650D02*
X11272324Y-11671174D01*
X11272324Y-11671174D02*
X11281848Y-11690222D01*
X11281848Y-11690222D02*
X11281848Y-11794984D01*
X11377086Y-11794984D02*
X11377086Y-11661650D01*
X11377086Y-11680698D02*
X11386610Y-11671174D01*
X11386610Y-11671174D02*
X11405658Y-11661650D01*
X11405658Y-11661650D02*
X11434229Y-11661650D01*
X11434229Y-11661650D02*
X11453277Y-11671174D01*
X11453277Y-11671174D02*
X11462801Y-11690222D01*
X11462801Y-11690222D02*
X11462801Y-11794984D01*
X11462801Y-11690222D02*
X11472324Y-11671174D01*
X11472324Y-11671174D02*
X11491372Y-11661650D01*
X11491372Y-11661650D02*
X11519943Y-11661650D01*
X11519943Y-11661650D02*
X11538991Y-11671174D01*
X11538991Y-11671174D02*
X11548515Y-11690222D01*
X11548515Y-11690222D02*
X11548515Y-11794984D01*
X11938991Y-11585460D02*
X11767563Y-11842603D01*
X12196134Y-11594984D02*
X12215182Y-11594984D01*
X12215182Y-11594984D02*
X12234229Y-11604508D01*
X12234229Y-11604508D02*
X12243753Y-11614031D01*
X12243753Y-11614031D02*
X12253277Y-11633079D01*
X12253277Y-11633079D02*
X12262801Y-11671174D01*
X12262801Y-11671174D02*
X12262801Y-11718793D01*
X12262801Y-11718793D02*
X12253277Y-11756888D01*
X12253277Y-11756888D02*
X12243753Y-11775936D01*
X12243753Y-11775936D02*
X12234229Y-11785460D01*
X12234229Y-11785460D02*
X12215182Y-11794984D01*
X12215182Y-11794984D02*
X12196134Y-11794984D01*
X12196134Y-11794984D02*
X12177086Y-11785460D01*
X12177086Y-11785460D02*
X12167563Y-11775936D01*
X12167563Y-11775936D02*
X12158039Y-11756888D01*
X12158039Y-11756888D02*
X12148515Y-11718793D01*
X12148515Y-11718793D02*
X12148515Y-11671174D01*
X12148515Y-11671174D02*
X12158039Y-11633079D01*
X12158039Y-11633079D02*
X12167563Y-11614031D01*
X12167563Y-11614031D02*
X12177086Y-11604508D01*
X12177086Y-11604508D02*
X12196134Y-11594984D01*
X12348515Y-11775936D02*
X12358039Y-11785460D01*
X12358039Y-11785460D02*
X12348515Y-11794984D01*
X12348515Y-11794984D02*
X12338991Y-11785460D01*
X12338991Y-11785460D02*
X12348515Y-11775936D01*
X12348515Y-11775936D02*
X12348515Y-11794984D01*
X12481848Y-11594984D02*
X12500896Y-11594984D01*
X12500896Y-11594984D02*
X12519944Y-11604508D01*
X12519944Y-11604508D02*
X12529467Y-11614031D01*
X12529467Y-11614031D02*
X12538991Y-11633079D01*
X12538991Y-11633079D02*
X12548515Y-11671174D01*
X12548515Y-11671174D02*
X12548515Y-11718793D01*
X12548515Y-11718793D02*
X12538991Y-11756888D01*
X12538991Y-11756888D02*
X12529467Y-11775936D01*
X12529467Y-11775936D02*
X12519944Y-11785460D01*
X12519944Y-11785460D02*
X12500896Y-11794984D01*
X12500896Y-11794984D02*
X12481848Y-11794984D01*
X12481848Y-11794984D02*
X12462801Y-11785460D01*
X12462801Y-11785460D02*
X12453277Y-11775936D01*
X12453277Y-11775936D02*
X12443753Y-11756888D01*
X12443753Y-11756888D02*
X12434229Y-11718793D01*
X12434229Y-11718793D02*
X12434229Y-11671174D01*
X12434229Y-11671174D02*
X12443753Y-11633079D01*
X12443753Y-11633079D02*
X12453277Y-11614031D01*
X12453277Y-11614031D02*
X12462801Y-11604508D01*
X12462801Y-11604508D02*
X12481848Y-11594984D01*
X12615182Y-11594984D02*
X12738991Y-11594984D01*
X12738991Y-11594984D02*
X12672325Y-11671174D01*
X12672325Y-11671174D02*
X12700896Y-11671174D01*
X12700896Y-11671174D02*
X12719944Y-11680698D01*
X12719944Y-11680698D02*
X12729467Y-11690222D01*
X12729467Y-11690222D02*
X12738991Y-11709269D01*
X12738991Y-11709269D02*
X12738991Y-11756888D01*
X12738991Y-11756888D02*
X12729467Y-11775936D01*
X12729467Y-11775936D02*
X12719944Y-11785460D01*
X12719944Y-11785460D02*
X12700896Y-11794984D01*
X12700896Y-11794984D02*
X12643753Y-11794984D01*
X12643753Y-11794984D02*
X12624706Y-11785460D01*
X12624706Y-11785460D02*
X12615182Y-11775936D01*
X12834229Y-11794984D02*
X12872325Y-11794984D01*
X12872325Y-11794984D02*
X12891372Y-11785460D01*
X12891372Y-11785460D02*
X12900896Y-11775936D01*
X12900896Y-11775936D02*
X12919944Y-11747365D01*
X12919944Y-11747365D02*
X12929467Y-11709269D01*
X12929467Y-11709269D02*
X12929467Y-11633079D01*
X12929467Y-11633079D02*
X12919944Y-11614031D01*
X12919944Y-11614031D02*
X12910420Y-11604508D01*
X12910420Y-11604508D02*
X12891372Y-11594984D01*
X12891372Y-11594984D02*
X12853277Y-11594984D01*
X12853277Y-11594984D02*
X12834229Y-11604508D01*
X12834229Y-11604508D02*
X12824706Y-11614031D01*
X12824706Y-11614031D02*
X12815182Y-11633079D01*
X12815182Y-11633079D02*
X12815182Y-11680698D01*
X12815182Y-11680698D02*
X12824706Y-11699746D01*
X12824706Y-11699746D02*
X12834229Y-11709269D01*
X12834229Y-11709269D02*
X12853277Y-11718793D01*
X12853277Y-11718793D02*
X12891372Y-11718793D01*
X12891372Y-11718793D02*
X12910420Y-11709269D01*
X12910420Y-11709269D02*
X12919944Y-11699746D01*
X12919944Y-11699746D02*
X12929467Y-11680698D01*
X13100896Y-11661650D02*
X13100896Y-11794984D01*
X13053277Y-11585460D02*
X13005658Y-11728317D01*
X13005658Y-11728317D02*
X13129467Y-11728317D01*
X13196134Y-11594984D02*
X13196134Y-11633079D01*
X13272325Y-11594984D02*
X13272325Y-11633079D01*
X13567563Y-11871174D02*
X13558039Y-11861650D01*
X13558039Y-11861650D02*
X13538991Y-11833079D01*
X13538991Y-11833079D02*
X13529468Y-11814031D01*
X13529468Y-11814031D02*
X13519944Y-11785460D01*
X13519944Y-11785460D02*
X13510420Y-11737841D01*
X13510420Y-11737841D02*
X13510420Y-11699746D01*
X13510420Y-11699746D02*
X13519944Y-11652127D01*
X13519944Y-11652127D02*
X13529468Y-11623555D01*
X13529468Y-11623555D02*
X13538991Y-11604508D01*
X13538991Y-11604508D02*
X13558039Y-11575936D01*
X13558039Y-11575936D02*
X13567563Y-11566412D01*
X13729468Y-11661650D02*
X13729468Y-11794984D01*
X13681848Y-11585460D02*
X13634229Y-11728317D01*
X13634229Y-11728317D02*
X13758039Y-11728317D01*
X13843753Y-11794984D02*
X13881848Y-11794984D01*
X13881848Y-11794984D02*
X13900896Y-11785460D01*
X13900896Y-11785460D02*
X13910420Y-11775936D01*
X13910420Y-11775936D02*
X13929468Y-11747365D01*
X13929468Y-11747365D02*
X13938991Y-11709269D01*
X13938991Y-11709269D02*
X13938991Y-11633079D01*
X13938991Y-11633079D02*
X13929468Y-11614031D01*
X13929468Y-11614031D02*
X13919944Y-11604508D01*
X13919944Y-11604508D02*
X13900896Y-11594984D01*
X13900896Y-11594984D02*
X13862801Y-11594984D01*
X13862801Y-11594984D02*
X13843753Y-11604508D01*
X13843753Y-11604508D02*
X13834229Y-11614031D01*
X13834229Y-11614031D02*
X13824706Y-11633079D01*
X13824706Y-11633079D02*
X13824706Y-11680698D01*
X13824706Y-11680698D02*
X13834229Y-11699746D01*
X13834229Y-11699746D02*
X13843753Y-11709269D01*
X13843753Y-11709269D02*
X13862801Y-11718793D01*
X13862801Y-11718793D02*
X13900896Y-11718793D01*
X13900896Y-11718793D02*
X13919944Y-11709269D01*
X13919944Y-11709269D02*
X13929468Y-11699746D01*
X13929468Y-11699746D02*
X13938991Y-11680698D01*
X14177087Y-11794984D02*
X14177087Y-11594984D01*
X14262801Y-11794984D02*
X14262801Y-11690222D01*
X14262801Y-11690222D02*
X14253277Y-11671174D01*
X14253277Y-11671174D02*
X14234230Y-11661650D01*
X14234230Y-11661650D02*
X14205658Y-11661650D01*
X14205658Y-11661650D02*
X14186610Y-11671174D01*
X14186610Y-11671174D02*
X14177087Y-11680698D01*
X14386610Y-11794984D02*
X14367563Y-11785460D01*
X14367563Y-11785460D02*
X14358039Y-11775936D01*
X14358039Y-11775936D02*
X14348515Y-11756888D01*
X14348515Y-11756888D02*
X14348515Y-11699746D01*
X14348515Y-11699746D02*
X14358039Y-11680698D01*
X14358039Y-11680698D02*
X14367563Y-11671174D01*
X14367563Y-11671174D02*
X14386610Y-11661650D01*
X14386610Y-11661650D02*
X14415182Y-11661650D01*
X14415182Y-11661650D02*
X14434230Y-11671174D01*
X14434230Y-11671174D02*
X14443753Y-11680698D01*
X14443753Y-11680698D02*
X14453277Y-11699746D01*
X14453277Y-11699746D02*
X14453277Y-11756888D01*
X14453277Y-11756888D02*
X14443753Y-11775936D01*
X14443753Y-11775936D02*
X14434230Y-11785460D01*
X14434230Y-11785460D02*
X14415182Y-11794984D01*
X14415182Y-11794984D02*
X14386610Y-11794984D01*
X14567563Y-11794984D02*
X14548515Y-11785460D01*
X14548515Y-11785460D02*
X14538991Y-11766412D01*
X14538991Y-11766412D02*
X14538991Y-11594984D01*
X14719944Y-11785460D02*
X14700896Y-11794984D01*
X14700896Y-11794984D02*
X14662801Y-11794984D01*
X14662801Y-11794984D02*
X14643753Y-11785460D01*
X14643753Y-11785460D02*
X14634230Y-11766412D01*
X14634230Y-11766412D02*
X14634230Y-11690222D01*
X14634230Y-11690222D02*
X14643753Y-11671174D01*
X14643753Y-11671174D02*
X14662801Y-11661650D01*
X14662801Y-11661650D02*
X14700896Y-11661650D01*
X14700896Y-11661650D02*
X14719944Y-11671174D01*
X14719944Y-11671174D02*
X14729468Y-11690222D01*
X14729468Y-11690222D02*
X14729468Y-11709269D01*
X14729468Y-11709269D02*
X14634230Y-11728317D01*
X14805658Y-11785460D02*
X14824706Y-11794984D01*
X14824706Y-11794984D02*
X14862801Y-11794984D01*
X14862801Y-11794984D02*
X14881849Y-11785460D01*
X14881849Y-11785460D02*
X14891372Y-11766412D01*
X14891372Y-11766412D02*
X14891372Y-11756888D01*
X14891372Y-11756888D02*
X14881849Y-11737841D01*
X14881849Y-11737841D02*
X14862801Y-11728317D01*
X14862801Y-11728317D02*
X14834230Y-11728317D01*
X14834230Y-11728317D02*
X14815182Y-11718793D01*
X14815182Y-11718793D02*
X14805658Y-11699746D01*
X14805658Y-11699746D02*
X14805658Y-11690222D01*
X14805658Y-11690222D02*
X14815182Y-11671174D01*
X14815182Y-11671174D02*
X14834230Y-11661650D01*
X14834230Y-11661650D02*
X14862801Y-11661650D01*
X14862801Y-11661650D02*
X14881849Y-11671174D01*
X14958039Y-11871174D02*
X14967563Y-11861650D01*
X14967563Y-11861650D02*
X14986611Y-11833079D01*
X14986611Y-11833079D02*
X14996134Y-11814031D01*
X14996134Y-11814031D02*
X15005658Y-11785460D01*
X15005658Y-11785460D02*
X15015182Y-11737841D01*
X15015182Y-11737841D02*
X15015182Y-11699746D01*
X15015182Y-11699746D02*
X15005658Y-11652127D01*
X15005658Y-11652127D02*
X14996134Y-11623555D01*
X14996134Y-11623555D02*
X14986611Y-11604508D01*
X14986611Y-11604508D02*
X14967563Y-11575936D01*
X14967563Y-11575936D02*
X14958039Y-11566412D01*
D13*
X9882500Y-11912500D02*
X9992500Y-12022500D01*
X9992500Y-11912500D02*
X9882500Y-12022500D01*
X9992500Y-11967500D02*
G75*
G02*
X9882500Y-11967500I-55000J0D01*
G01*
X9882500Y-11967500D02*
G75*
G02*
X9992500Y-11967500I55000J0D01*
G01*
D11*
X10358039Y-12058984D02*
X10243753Y-12058984D01*
X10300896Y-12058984D02*
X10300896Y-11858984D01*
X10300896Y-11858984D02*
X10281848Y-11887555D01*
X10281848Y-11887555D02*
X10262801Y-11906603D01*
X10262801Y-11906603D02*
X10243753Y-11916127D01*
X10443753Y-12039936D02*
X10453277Y-12049460D01*
X10453277Y-12049460D02*
X10443753Y-12058984D01*
X10443753Y-12058984D02*
X10434229Y-12049460D01*
X10434229Y-12049460D02*
X10443753Y-12039936D01*
X10443753Y-12039936D02*
X10443753Y-12058984D01*
X10643753Y-12058984D02*
X10529467Y-12058984D01*
X10586610Y-12058984D02*
X10586610Y-11858984D01*
X10586610Y-11858984D02*
X10567563Y-11887555D01*
X10567563Y-11887555D02*
X10548515Y-11906603D01*
X10548515Y-11906603D02*
X10529467Y-11916127D01*
X10767563Y-11858984D02*
X10786610Y-11858984D01*
X10786610Y-11858984D02*
X10805658Y-11868508D01*
X10805658Y-11868508D02*
X10815182Y-11878031D01*
X10815182Y-11878031D02*
X10824705Y-11897079D01*
X10824705Y-11897079D02*
X10834229Y-11935174D01*
X10834229Y-11935174D02*
X10834229Y-11982793D01*
X10834229Y-11982793D02*
X10824705Y-12020888D01*
X10824705Y-12020888D02*
X10815182Y-12039936D01*
X10815182Y-12039936D02*
X10805658Y-12049460D01*
X10805658Y-12049460D02*
X10786610Y-12058984D01*
X10786610Y-12058984D02*
X10767563Y-12058984D01*
X10767563Y-12058984D02*
X10748515Y-12049460D01*
X10748515Y-12049460D02*
X10738991Y-12039936D01*
X10738991Y-12039936D02*
X10729467Y-12020888D01*
X10729467Y-12020888D02*
X10719944Y-11982793D01*
X10719944Y-11982793D02*
X10719944Y-11935174D01*
X10719944Y-11935174D02*
X10729467Y-11897079D01*
X10729467Y-11897079D02*
X10738991Y-11878031D01*
X10738991Y-11878031D02*
X10748515Y-11868508D01*
X10748515Y-11868508D02*
X10767563Y-11858984D01*
X10958039Y-11858984D02*
X10977086Y-11858984D01*
X10977086Y-11858984D02*
X10996134Y-11868508D01*
X10996134Y-11868508D02*
X11005658Y-11878031D01*
X11005658Y-11878031D02*
X11015182Y-11897079D01*
X11015182Y-11897079D02*
X11024705Y-11935174D01*
X11024705Y-11935174D02*
X11024705Y-11982793D01*
X11024705Y-11982793D02*
X11015182Y-12020888D01*
X11015182Y-12020888D02*
X11005658Y-12039936D01*
X11005658Y-12039936D02*
X10996134Y-12049460D01*
X10996134Y-12049460D02*
X10977086Y-12058984D01*
X10977086Y-12058984D02*
X10958039Y-12058984D01*
X10958039Y-12058984D02*
X10938991Y-12049460D01*
X10938991Y-12049460D02*
X10929467Y-12039936D01*
X10929467Y-12039936D02*
X10919944Y-12020888D01*
X10919944Y-12020888D02*
X10910420Y-11982793D01*
X10910420Y-11982793D02*
X10910420Y-11935174D01*
X10910420Y-11935174D02*
X10919944Y-11897079D01*
X10919944Y-11897079D02*
X10929467Y-11878031D01*
X10929467Y-11878031D02*
X10938991Y-11868508D01*
X10938991Y-11868508D02*
X10958039Y-11858984D01*
X11110420Y-12058984D02*
X11110420Y-11925650D01*
X11110420Y-11944698D02*
X11119944Y-11935174D01*
X11119944Y-11935174D02*
X11138991Y-11925650D01*
X11138991Y-11925650D02*
X11167563Y-11925650D01*
X11167563Y-11925650D02*
X11186610Y-11935174D01*
X11186610Y-11935174D02*
X11196134Y-11954222D01*
X11196134Y-11954222D02*
X11196134Y-12058984D01*
X11196134Y-11954222D02*
X11205658Y-11935174D01*
X11205658Y-11935174D02*
X11224705Y-11925650D01*
X11224705Y-11925650D02*
X11253277Y-11925650D01*
X11253277Y-11925650D02*
X11272324Y-11935174D01*
X11272324Y-11935174D02*
X11281848Y-11954222D01*
X11281848Y-11954222D02*
X11281848Y-12058984D01*
X11377086Y-12058984D02*
X11377086Y-11925650D01*
X11377086Y-11944698D02*
X11386610Y-11935174D01*
X11386610Y-11935174D02*
X11405658Y-11925650D01*
X11405658Y-11925650D02*
X11434229Y-11925650D01*
X11434229Y-11925650D02*
X11453277Y-11935174D01*
X11453277Y-11935174D02*
X11462801Y-11954222D01*
X11462801Y-11954222D02*
X11462801Y-12058984D01*
X11462801Y-11954222D02*
X11472324Y-11935174D01*
X11472324Y-11935174D02*
X11491372Y-11925650D01*
X11491372Y-11925650D02*
X11519943Y-11925650D01*
X11519943Y-11925650D02*
X11538991Y-11935174D01*
X11538991Y-11935174D02*
X11548515Y-11954222D01*
X11548515Y-11954222D02*
X11548515Y-12058984D01*
X11938991Y-11849460D02*
X11767563Y-12106603D01*
X12196134Y-11858984D02*
X12215182Y-11858984D01*
X12215182Y-11858984D02*
X12234229Y-11868508D01*
X12234229Y-11868508D02*
X12243753Y-11878031D01*
X12243753Y-11878031D02*
X12253277Y-11897079D01*
X12253277Y-11897079D02*
X12262801Y-11935174D01*
X12262801Y-11935174D02*
X12262801Y-11982793D01*
X12262801Y-11982793D02*
X12253277Y-12020888D01*
X12253277Y-12020888D02*
X12243753Y-12039936D01*
X12243753Y-12039936D02*
X12234229Y-12049460D01*
X12234229Y-12049460D02*
X12215182Y-12058984D01*
X12215182Y-12058984D02*
X12196134Y-12058984D01*
X12196134Y-12058984D02*
X12177086Y-12049460D01*
X12177086Y-12049460D02*
X12167563Y-12039936D01*
X12167563Y-12039936D02*
X12158039Y-12020888D01*
X12158039Y-12020888D02*
X12148515Y-11982793D01*
X12148515Y-11982793D02*
X12148515Y-11935174D01*
X12148515Y-11935174D02*
X12158039Y-11897079D01*
X12158039Y-11897079D02*
X12167563Y-11878031D01*
X12167563Y-11878031D02*
X12177086Y-11868508D01*
X12177086Y-11868508D02*
X12196134Y-11858984D01*
X12348515Y-12039936D02*
X12358039Y-12049460D01*
X12358039Y-12049460D02*
X12348515Y-12058984D01*
X12348515Y-12058984D02*
X12338991Y-12049460D01*
X12338991Y-12049460D02*
X12348515Y-12039936D01*
X12348515Y-12039936D02*
X12348515Y-12058984D01*
X12481848Y-11858984D02*
X12500896Y-11858984D01*
X12500896Y-11858984D02*
X12519944Y-11868508D01*
X12519944Y-11868508D02*
X12529467Y-11878031D01*
X12529467Y-11878031D02*
X12538991Y-11897079D01*
X12538991Y-11897079D02*
X12548515Y-11935174D01*
X12548515Y-11935174D02*
X12548515Y-11982793D01*
X12548515Y-11982793D02*
X12538991Y-12020888D01*
X12538991Y-12020888D02*
X12529467Y-12039936D01*
X12529467Y-12039936D02*
X12519944Y-12049460D01*
X12519944Y-12049460D02*
X12500896Y-12058984D01*
X12500896Y-12058984D02*
X12481848Y-12058984D01*
X12481848Y-12058984D02*
X12462801Y-12049460D01*
X12462801Y-12049460D02*
X12453277Y-12039936D01*
X12453277Y-12039936D02*
X12443753Y-12020888D01*
X12443753Y-12020888D02*
X12434229Y-11982793D01*
X12434229Y-11982793D02*
X12434229Y-11935174D01*
X12434229Y-11935174D02*
X12443753Y-11897079D01*
X12443753Y-11897079D02*
X12453277Y-11878031D01*
X12453277Y-11878031D02*
X12462801Y-11868508D01*
X12462801Y-11868508D02*
X12481848Y-11858984D01*
X12719944Y-11925650D02*
X12719944Y-12058984D01*
X12672325Y-11849460D02*
X12624706Y-11992317D01*
X12624706Y-11992317D02*
X12748515Y-11992317D01*
X12805658Y-11858984D02*
X12929467Y-11858984D01*
X12929467Y-11858984D02*
X12862801Y-11935174D01*
X12862801Y-11935174D02*
X12891372Y-11935174D01*
X12891372Y-11935174D02*
X12910420Y-11944698D01*
X12910420Y-11944698D02*
X12919944Y-11954222D01*
X12919944Y-11954222D02*
X12929467Y-11973269D01*
X12929467Y-11973269D02*
X12929467Y-12020888D01*
X12929467Y-12020888D02*
X12919944Y-12039936D01*
X12919944Y-12039936D02*
X12910420Y-12049460D01*
X12910420Y-12049460D02*
X12891372Y-12058984D01*
X12891372Y-12058984D02*
X12834229Y-12058984D01*
X12834229Y-12058984D02*
X12815182Y-12049460D01*
X12815182Y-12049460D02*
X12805658Y-12039936D01*
X12996134Y-11858984D02*
X13119944Y-11858984D01*
X13119944Y-11858984D02*
X13053277Y-11935174D01*
X13053277Y-11935174D02*
X13081848Y-11935174D01*
X13081848Y-11935174D02*
X13100896Y-11944698D01*
X13100896Y-11944698D02*
X13110420Y-11954222D01*
X13110420Y-11954222D02*
X13119944Y-11973269D01*
X13119944Y-11973269D02*
X13119944Y-12020888D01*
X13119944Y-12020888D02*
X13110420Y-12039936D01*
X13110420Y-12039936D02*
X13100896Y-12049460D01*
X13100896Y-12049460D02*
X13081848Y-12058984D01*
X13081848Y-12058984D02*
X13024706Y-12058984D01*
X13024706Y-12058984D02*
X13005658Y-12049460D01*
X13005658Y-12049460D02*
X12996134Y-12039936D01*
X13196134Y-11858984D02*
X13196134Y-11897079D01*
X13272325Y-11858984D02*
X13272325Y-11897079D01*
X13567563Y-12135174D02*
X13558039Y-12125650D01*
X13558039Y-12125650D02*
X13538991Y-12097079D01*
X13538991Y-12097079D02*
X13529468Y-12078031D01*
X13529468Y-12078031D02*
X13519944Y-12049460D01*
X13519944Y-12049460D02*
X13510420Y-12001841D01*
X13510420Y-12001841D02*
X13510420Y-11963746D01*
X13510420Y-11963746D02*
X13519944Y-11916127D01*
X13519944Y-11916127D02*
X13529468Y-11887555D01*
X13529468Y-11887555D02*
X13538991Y-11868508D01*
X13538991Y-11868508D02*
X13558039Y-11839936D01*
X13558039Y-11839936D02*
X13567563Y-11830412D01*
X13729468Y-11925650D02*
X13729468Y-12058984D01*
X13681848Y-11849460D02*
X13634229Y-11992317D01*
X13634229Y-11992317D02*
X13758039Y-11992317D01*
X13986610Y-12058984D02*
X13986610Y-11858984D01*
X14072325Y-12058984D02*
X14072325Y-11954222D01*
X14072325Y-11954222D02*
X14062801Y-11935174D01*
X14062801Y-11935174D02*
X14043753Y-11925650D01*
X14043753Y-11925650D02*
X14015182Y-11925650D01*
X14015182Y-11925650D02*
X13996134Y-11935174D01*
X13996134Y-11935174D02*
X13986610Y-11944698D01*
X14196134Y-12058984D02*
X14177087Y-12049460D01*
X14177087Y-12049460D02*
X14167563Y-12039936D01*
X14167563Y-12039936D02*
X14158039Y-12020888D01*
X14158039Y-12020888D02*
X14158039Y-11963746D01*
X14158039Y-11963746D02*
X14167563Y-11944698D01*
X14167563Y-11944698D02*
X14177087Y-11935174D01*
X14177087Y-11935174D02*
X14196134Y-11925650D01*
X14196134Y-11925650D02*
X14224706Y-11925650D01*
X14224706Y-11925650D02*
X14243753Y-11935174D01*
X14243753Y-11935174D02*
X14253277Y-11944698D01*
X14253277Y-11944698D02*
X14262801Y-11963746D01*
X14262801Y-11963746D02*
X14262801Y-12020888D01*
X14262801Y-12020888D02*
X14253277Y-12039936D01*
X14253277Y-12039936D02*
X14243753Y-12049460D01*
X14243753Y-12049460D02*
X14224706Y-12058984D01*
X14224706Y-12058984D02*
X14196134Y-12058984D01*
X14377087Y-12058984D02*
X14358039Y-12049460D01*
X14358039Y-12049460D02*
X14348515Y-12030412D01*
X14348515Y-12030412D02*
X14348515Y-11858984D01*
X14529468Y-12049460D02*
X14510420Y-12058984D01*
X14510420Y-12058984D02*
X14472325Y-12058984D01*
X14472325Y-12058984D02*
X14453277Y-12049460D01*
X14453277Y-12049460D02*
X14443753Y-12030412D01*
X14443753Y-12030412D02*
X14443753Y-11954222D01*
X14443753Y-11954222D02*
X14453277Y-11935174D01*
X14453277Y-11935174D02*
X14472325Y-11925650D01*
X14472325Y-11925650D02*
X14510420Y-11925650D01*
X14510420Y-11925650D02*
X14529468Y-11935174D01*
X14529468Y-11935174D02*
X14538991Y-11954222D01*
X14538991Y-11954222D02*
X14538991Y-11973269D01*
X14538991Y-11973269D02*
X14443753Y-11992317D01*
X14615182Y-12049460D02*
X14634230Y-12058984D01*
X14634230Y-12058984D02*
X14672325Y-12058984D01*
X14672325Y-12058984D02*
X14691372Y-12049460D01*
X14691372Y-12049460D02*
X14700896Y-12030412D01*
X14700896Y-12030412D02*
X14700896Y-12020888D01*
X14700896Y-12020888D02*
X14691372Y-12001841D01*
X14691372Y-12001841D02*
X14672325Y-11992317D01*
X14672325Y-11992317D02*
X14643753Y-11992317D01*
X14643753Y-11992317D02*
X14624706Y-11982793D01*
X14624706Y-11982793D02*
X14615182Y-11963746D01*
X14615182Y-11963746D02*
X14615182Y-11954222D01*
X14615182Y-11954222D02*
X14624706Y-11935174D01*
X14624706Y-11935174D02*
X14643753Y-11925650D01*
X14643753Y-11925650D02*
X14672325Y-11925650D01*
X14672325Y-11925650D02*
X14691372Y-11935174D01*
X14767563Y-12135174D02*
X14777087Y-12125650D01*
X14777087Y-12125650D02*
X14796134Y-12097079D01*
X14796134Y-12097079D02*
X14805658Y-12078031D01*
X14805658Y-12078031D02*
X14815182Y-12049460D01*
X14815182Y-12049460D02*
X14824706Y-12001841D01*
X14824706Y-12001841D02*
X14824706Y-11963746D01*
X14824706Y-11963746D02*
X14815182Y-11916127D01*
X14815182Y-11916127D02*
X14805658Y-11887555D01*
X14805658Y-11887555D02*
X14796134Y-11868508D01*
X14796134Y-11868508D02*
X14777087Y-11839936D01*
X14777087Y-11839936D02*
X14767563Y-11830412D01*
M02*
